<svg width="64" height="64" viewBox="0 0 64 64" fill="none" xmlns="http://www.w3.org/2000/svg">
<path fill-rule="evenodd" clip-rule="evenodd" d="M7.4319 0.188049H41.9771C45.9778 0.188049 49.221 3.43126 49.221 7.43197V41.0687C49.221 45.0694 45.9778 48.3126 41.9771 48.3126H7.43191C3.43121 48.3126 0.187988 45.0694 0.187988 41.0687V7.43197C0.187988 3.43127 3.43119 0.188049 7.4319 0.188049ZM7.4319 3.81001C5.43155 3.81001 3.80995 5.43162 3.80995 7.43197V41.0687C3.80995 43.069 5.43156 44.6906 7.43191 44.6906H41.9771C43.9774 44.6906 45.599 43.069 45.599 41.0687V7.43197C45.599 5.43161 43.9774 3.81001 41.9771 3.81001H7.4319Z" fill="black"/>
<path fill-rule="evenodd" clip-rule="evenodd" d="M21.9673 14.7234H56.5125C60.5132 14.7234 63.7564 17.9666 63.7564 21.9673V55.604C63.7564 59.6047 60.5132 62.848 56.5125 62.848H21.9673C17.9666 62.848 14.7234 59.6048 14.7234 55.604V21.9673C14.7234 17.9666 17.9666 14.7234 21.9673 14.7234ZM21.9673 18.3454C19.967 18.3454 18.3453 19.967 18.3453 21.9673V55.604C18.3453 57.6044 19.967 59.226 21.9673 59.226H56.5125C58.5128 59.226 60.1344 57.6044 60.1344 55.604V21.9673C60.1344 19.967 58.5128 18.3454 56.5125 18.3454H21.9673Z" fill="black"/>
</svg>
