<svg width="118" height="20" viewBox="0 0 118 20" fill="none" xmlns="http://www.w3.org/2000/svg">
<path d="M0 3C0 1.34315 1.34315 0 3 0H115C116.657 0 118 1.34315 118 3V17C118 18.6569 116.657 20 115 20H3C1.34314 20 0 18.6569 0 17V3Z" fill="#FAFAFA"/>
<path d="M14.668 4.5H8.66797C7.97761 4.5 7.41797 5.05964 7.41797 5.75V11.5833C7.41797 12.2737 7.97761 12.8333 8.66797 12.8333H14.668C15.3583 12.8333 15.918 12.2737 15.918 11.5833V5.75C15.918 5.05964 15.3583 4.5 14.668 4.5Z" stroke="black" stroke-width="0.833333"/>
<path d="M17.334 7.16675H11.334C10.6436 7.16675 10.084 7.72639 10.084 8.41675V14.2501C10.084 14.9404 10.6436 15.5001 11.334 15.5001H17.334C18.0243 15.5001 18.584 14.9404 18.584 14.2501V8.41675C18.584 7.72639 18.0243 7.16675 17.334 7.16675Z" stroke="black" stroke-width="0.833333"/>
<path d="M34.2407 10C34.2407 10.8542 34.0845 11.5885 33.772 12.2031C33.4595 12.8151 33.0311 13.2865 32.4868 13.6172C31.9452 13.9453 31.3293 14.1094 30.6392 14.1094C29.9465 14.1094 29.328 13.9453 28.7837 13.6172C28.242 13.2865 27.8149 12.8138 27.5024 12.1992C27.1899 11.5846 27.0337 10.8516 27.0337 10C27.0337 9.14583 27.1899 8.41276 27.5024 7.80078C27.8149 7.1862 28.242 6.71484 28.7837 6.38672C29.328 6.05599 29.9465 5.89062 30.6392 5.89062C31.3293 5.89062 31.9452 6.05599 32.4868 6.38672C33.0311 6.71484 33.4595 7.1862 33.772 7.80078C34.0845 8.41276 34.2407 9.14583 34.2407 10ZM33.0454 10C33.0454 9.34896 32.9399 8.80078 32.729 8.35547C32.5207 7.90755 32.2342 7.56901 31.8696 7.33984C31.5076 7.10807 31.0975 6.99219 30.6392 6.99219C30.1782 6.99219 29.7668 7.10807 29.4048 7.33984C29.0428 7.56901 28.7563 7.90755 28.5454 8.35547C28.3371 8.80078 28.2329 9.34896 28.2329 10C28.2329 10.651 28.3371 11.2005 28.5454 11.6484C28.7563 12.0937 29.0428 12.4323 29.4048 12.6641C29.7668 12.8932 30.1782 13.0078 30.6392 13.0078C31.0975 13.0078 31.5076 12.8932 31.8696 12.6641C32.2342 12.4323 32.5207 12.0937 32.729 11.6484C32.9399 11.2005 33.0454 10.651 33.0454 10ZM35.6519 16.25V8H36.7925V8.97266H36.8901C36.9578 8.84766 37.0555 8.70312 37.1831 8.53906C37.3107 8.375 37.4878 8.23177 37.7144 8.10937C37.9409 7.98438 38.2404 7.92188 38.6128 7.92188C39.0972 7.92188 39.5295 8.04427 39.9097 8.28906C40.2899 8.53385 40.5881 8.88672 40.8042 9.34766C41.0229 9.80859 41.1323 10.3633 41.1323 11.0117C41.1323 11.6602 41.0243 12.2161 40.8081 12.6797C40.592 13.1406 40.2951 13.4961 39.9175 13.7461C39.5399 13.9935 39.1089 14.1172 38.6245 14.1172C38.2599 14.1172 37.9618 14.056 37.73 13.9336C37.5008 13.8112 37.3211 13.668 37.1909 13.5039C37.0607 13.3398 36.9604 13.194 36.8901 13.0664H36.8198V16.25H35.6519ZM36.7964 11C36.7964 11.4219 36.8576 11.7917 36.98 12.1094C37.1024 12.4271 37.2795 12.6758 37.5112 12.8555C37.743 13.0326 38.0269 13.1211 38.3628 13.1211C38.7118 13.1211 39.0034 13.0286 39.2378 12.8437C39.4722 12.6562 39.6493 12.4023 39.769 12.082C39.8914 11.7617 39.9526 11.401 39.9526 11C39.9526 10.6042 39.8927 10.2487 39.7729 9.93359C39.6558 9.61849 39.4787 9.36979 39.2417 9.1875C39.0073 9.00521 38.7144 8.91406 38.3628 8.91406C38.0243 8.91406 37.7378 9.0013 37.5034 9.17578C37.2716 9.35026 37.0959 9.59375 36.9761 9.90625C36.8563 10.2187 36.7964 10.5833 36.7964 11ZM45.0269 14.1211C44.4357 14.1211 43.9266 13.9948 43.4995 13.7422C43.075 13.487 42.7469 13.1289 42.5151 12.668C42.286 12.2044 42.1714 11.6615 42.1714 11.0391C42.1714 10.4245 42.286 9.88281 42.5151 9.41406C42.7469 8.94531 43.0698 8.57943 43.4839 8.31641C43.9006 8.05339 44.3875 7.92188 44.9448 7.92188C45.2834 7.92188 45.6115 7.97786 45.9292 8.08984C46.2469 8.20182 46.5321 8.3776 46.7847 8.61719C47.0373 8.85677 47.2365 9.16797 47.3823 9.55078C47.5282 9.93099 47.6011 10.3932 47.6011 10.9375V11.3516H42.8315V10.4766H46.4565C46.4565 10.1693 46.394 9.89714 46.269 9.66016C46.144 9.42057 45.9683 9.23177 45.7417 9.09375C45.5177 8.95573 45.2547 8.88672 44.9526 8.88672C44.6245 8.88672 44.3381 8.96745 44.0933 9.12891C43.8511 9.28776 43.6636 9.49609 43.5308 9.75391C43.4006 10.0091 43.3354 10.2865 43.3354 10.5859V11.2695C43.3354 11.6706 43.4058 12.0117 43.5464 12.293C43.6896 12.5742 43.8888 12.7891 44.144 12.9375C44.3993 13.0833 44.6974 13.1562 45.0386 13.1562C45.2599 13.1562 45.4618 13.125 45.644 13.0625C45.8263 12.9974 45.9839 12.901 46.1167 12.7734C46.2495 12.6458 46.3511 12.4883 46.4214 12.3008L47.5269 12.5C47.4383 12.8255 47.2795 13.1107 47.0503 13.3555C46.8237 13.5977 46.5386 13.7865 46.1948 13.9219C45.8537 14.0547 45.4644 14.1211 45.0269 14.1211ZM50.0649 10.4375V14H48.897V8H50.0181V8.97656H50.0923C50.2303 8.65885 50.4465 8.40365 50.7407 8.21094C51.0376 8.01823 51.4113 7.92188 51.8618 7.92188C52.2707 7.92188 52.6287 8.00781 52.936 8.17969C53.2433 8.34896 53.4816 8.60156 53.6509 8.9375C53.8201 9.27344 53.9048 9.6888 53.9048 10.1836V14H52.7368V10.3242C52.7368 9.88932 52.6235 9.54948 52.397 9.30469C52.1704 9.05729 51.8592 8.93359 51.4634 8.93359C51.1925 8.93359 50.9517 8.99219 50.7407 9.10937C50.5324 9.22656 50.367 9.39844 50.2446 9.625C50.1248 9.84896 50.0649 10.1198 50.0649 10.4375ZM58.3823 14V8H59.5503V14H58.3823ZM58.9722 7.07422C58.769 7.07422 58.5946 7.00651 58.4487 6.87109C58.3055 6.73307 58.2339 6.56901 58.2339 6.37891C58.2339 6.1862 58.3055 6.02214 58.4487 5.88672C58.5946 5.7487 58.769 5.67969 58.9722 5.67969C59.1753 5.67969 59.3485 5.7487 59.4917 5.88672C59.6375 6.02214 59.7104 6.1862 59.7104 6.37891C59.7104 6.56901 59.6375 6.73307 59.4917 6.87109C59.3485 7.00651 59.1753 7.07422 58.9722 7.07422ZM62.2896 10.4375V14H61.1216V8H62.2427V8.97656H62.3169C62.4549 8.65885 62.6711 8.40365 62.9653 8.21094C63.2622 8.01823 63.6359 7.92188 64.0864 7.92188C64.4953 7.92188 64.8534 8.00781 65.1606 8.17969C65.4679 8.34896 65.7062 8.60156 65.8755 8.9375C66.0448 9.27344 66.1294 9.6888 66.1294 10.1836V14H64.9614V10.3242C64.9614 9.88932 64.8481 9.54948 64.6216 9.30469C64.395 9.05729 64.0838 8.93359 63.688 8.93359C63.4172 8.93359 63.1763 8.99219 62.9653 9.10937C62.757 9.22656 62.5916 9.39844 62.4692 9.625C62.3494 9.84896 62.2896 10.1198 62.2896 10.4375Z" fill="#616161"/>
<path d="M77.6499 10C77.6499 10.8542 77.4937 11.5885 77.1812 12.2031C76.8687 12.8151 76.4403 13.2865 75.896 13.6172C75.3543 13.9453 74.7384 14.1094 74.0483 14.1094C73.3556 14.1094 72.7371 13.9453 72.1929 13.6172C71.6512 13.2865 71.2241 12.8138 70.9116 12.1992C70.5991 11.5846 70.4429 10.8516 70.4429 10C70.4429 9.14583 70.5991 8.41276 70.9116 7.80078C71.2241 7.1862 71.6512 6.71484 72.1929 6.38672C72.7371 6.05599 73.3556 5.89062 74.0483 5.89062C74.7384 5.89062 75.3543 6.05599 75.896 6.38672C76.4403 6.71484 76.8687 7.1862 77.1812 7.80078C77.4937 8.41276 77.6499 9.14583 77.6499 10ZM76.4546 10C76.4546 9.34896 76.3491 8.80078 76.1382 8.35547C75.9299 7.90755 75.6434 7.56901 75.2788 7.33984C74.9168 7.10807 74.5067 6.99219 74.0483 6.99219C73.5874 6.99219 73.1759 7.10807 72.814 7.33984C72.452 7.56901 72.1655 7.90755 71.9546 8.35547C71.7463 8.80078 71.6421 9.34896 71.6421 10C71.6421 10.651 71.7463 11.2005 71.9546 11.6484C72.1655 12.0937 72.452 12.4323 72.814 12.6641C73.1759 12.8932 73.5874 13.0078 74.0483 13.0078C74.5067 13.0078 74.9168 12.8932 75.2788 12.6641C75.6434 12.4323 75.9299 12.0937 76.1382 11.6484C76.3491 11.2005 76.4546 10.651 76.4546 10ZM79.061 14V8H80.1899V8.95312H80.2524C80.3618 8.63021 80.5545 8.3763 80.8306 8.19141C81.1092 8.00391 81.4243 7.91016 81.7759 7.91016C81.8488 7.91016 81.9347 7.91276 82.0337 7.91797C82.1353 7.92318 82.2147 7.92969 82.272 7.9375V9.05469C82.2251 9.04167 82.1418 9.02734 82.022 9.01172C81.9022 8.99349 81.7824 8.98437 81.6626 8.98437C81.3866 8.98437 81.1405 9.04297 80.9243 9.16016C80.7108 9.27474 80.5415 9.4349 80.4165 9.64062C80.2915 9.84375 80.229 10.0755 80.229 10.3359V14H79.061ZM85.5952 14.1211C85.0145 14.1211 84.5145 13.9896 84.0952 13.7266C83.6785 13.4609 83.3582 13.0951 83.1343 12.6289C82.9103 12.1628 82.7983 11.6289 82.7983 11.0273C82.7983 10.418 82.9129 9.88021 83.1421 9.41406C83.3713 8.94531 83.6942 8.57943 84.1108 8.31641C84.5275 8.05339 85.0184 7.92188 85.5835 7.92188C86.0392 7.92188 86.4455 8.00651 86.8022 8.17578C87.159 8.34245 87.4468 8.57682 87.6655 8.87891C87.8869 9.18099 88.0184 9.53385 88.0601 9.9375H86.9233C86.8608 9.65625 86.7176 9.41406 86.4937 9.21094C86.2723 9.00781 85.9754 8.90625 85.603 8.90625C85.2775 8.90625 84.9924 8.99219 84.7476 9.16406C84.5054 9.33333 84.3166 9.57552 84.1812 9.89062C84.0457 10.2031 83.978 10.5729 83.978 11C83.978 11.4375 84.0444 11.8151 84.1772 12.1328C84.3101 12.4505 84.4976 12.6966 84.7397 12.8711C84.9845 13.0456 85.2723 13.1328 85.603 13.1328C85.8244 13.1328 86.0249 13.0924 86.2046 13.0117C86.3869 12.9284 86.5392 12.8099 86.6616 12.6562C86.7866 12.5026 86.8739 12.3177 86.9233 12.1016H88.0601C88.0184 12.4896 87.8921 12.8359 87.6812 13.1406C87.4702 13.4453 87.1877 13.6849 86.8335 13.8594C86.4819 14.0339 86.0692 14.1211 85.5952 14.1211ZM90.4771 10.4375V14H89.3091V6H90.4614V8.97656H90.5356C90.6763 8.65365 90.8911 8.39714 91.1802 8.20703C91.4692 8.01693 91.8468 7.92188 92.313 7.92188C92.7244 7.92188 93.0838 8.00651 93.3911 8.17578C93.701 8.34505 93.9406 8.59766 94.1099 8.93359C94.2817 9.26693 94.3677 9.68359 94.3677 10.1836V14H93.1997V10.3242C93.1997 9.88411 93.0864 9.54297 92.8599 9.30078C92.6333 9.05599 92.3182 8.93359 91.9146 8.93359C91.6385 8.93359 91.3911 8.99219 91.1724 9.10937C90.9562 9.22656 90.7856 9.39844 90.6606 9.625C90.5382 9.84896 90.4771 10.1198 90.4771 10.4375ZM98.5122 14.1211C97.9211 14.1211 97.4119 13.9948 96.9849 13.7422C96.5604 13.487 96.2323 13.1289 96.0005 12.668C95.7713 12.2044 95.6567 11.6615 95.6567 11.0391C95.6567 10.4245 95.7713 9.88281 96.0005 9.41406C96.2323 8.94531 96.5552 8.57943 96.9692 8.31641C97.3859 8.05339 97.8729 7.92188 98.4302 7.92188C98.7687 7.92188 99.0968 7.97786 99.4146 8.08984C99.7323 8.20182 100.017 8.3776 100.27 8.61719C100.523 8.85677 100.722 9.16797 100.868 9.55078C101.014 9.93099 101.086 10.3932 101.086 10.9375V11.3516H96.3169V10.4766H99.9419C99.9419 10.1693 99.8794 9.89714 99.7544 9.66016C99.6294 9.42057 99.4536 9.23177 99.2271 9.09375C99.0031 8.95573 98.7401 8.88672 98.438 8.88672C98.1099 8.88672 97.8234 8.96745 97.5786 9.12891C97.3364 9.28776 97.1489 9.49609 97.0161 9.75391C96.8859 10.0091 96.8208 10.2865 96.8208 10.5859V11.2695C96.8208 11.6706 96.8911 12.0117 97.0317 12.293C97.175 12.5742 97.3742 12.7891 97.6294 12.9375C97.8846 13.0833 98.1828 13.1562 98.5239 13.1562C98.7453 13.1562 98.9471 13.125 99.1294 13.0625C99.3117 12.9974 99.4692 12.901 99.6021 12.7734C99.7349 12.6458 99.8364 12.4883 99.9067 12.3008L101.012 12.5C100.924 12.8255 100.765 13.1107 100.536 13.3555C100.309 13.5977 100.024 13.7865 99.6802 13.9219C99.339 14.0547 98.9497 14.1211 98.5122 14.1211ZM106.878 9.46484L105.82 9.65234C105.776 9.51693 105.705 9.38802 105.609 9.26562C105.515 9.14323 105.388 9.04297 105.226 8.96484C105.065 8.88672 104.863 8.84766 104.621 8.84766C104.29 8.84766 104.014 8.92187 103.792 9.07031C103.571 9.21615 103.46 9.40495 103.46 9.63672C103.46 9.83724 103.535 9.9987 103.683 10.1211C103.832 10.2435 104.071 10.3437 104.402 10.4219L105.355 10.6406C105.907 10.7682 106.319 10.9648 106.589 11.2305C106.86 11.4961 106.996 11.8411 106.996 12.2656C106.996 12.625 106.891 12.9453 106.683 13.2266C106.477 13.5052 106.19 13.724 105.82 13.8828C105.453 14.0417 105.027 14.1211 104.542 14.1211C103.871 14.1211 103.322 13.9779 102.898 13.6914C102.473 13.4023 102.213 12.9922 102.117 12.4609L103.246 12.2891C103.316 12.5833 103.46 12.806 103.679 12.957C103.898 13.1055 104.183 13.1797 104.535 13.1797C104.917 13.1797 105.223 13.1003 105.453 12.9414C105.682 12.7799 105.796 12.5833 105.796 12.3516C105.796 12.1641 105.726 12.0065 105.585 11.8789C105.447 11.7513 105.235 11.6549 104.949 11.5898L103.933 11.3672C103.373 11.2396 102.959 11.0365 102.691 10.7578C102.425 10.4792 102.292 10.1263 102.292 9.69922C102.292 9.34505 102.391 9.03516 102.589 8.76953C102.787 8.50391 103.061 8.29687 103.41 8.14844C103.759 7.9974 104.158 7.92188 104.609 7.92188C105.257 7.92188 105.768 8.0625 106.14 8.34375C106.513 8.6224 106.759 8.99609 106.878 9.46484ZM111.081 8V8.9375H107.803V8H111.081ZM108.682 6.5625H109.85V12.2383C109.85 12.4648 109.884 12.6354 109.952 12.75C110.019 12.862 110.107 12.9388 110.213 12.9805C110.323 13.0195 110.441 13.0391 110.569 13.0391C110.663 13.0391 110.745 13.0326 110.815 13.0195C110.885 13.0065 110.94 12.9961 110.979 12.9883L111.19 13.9531C111.122 13.9792 111.026 14.0052 110.901 14.0313C110.776 14.0599 110.62 14.0755 110.432 14.0781C110.125 14.0833 109.838 14.0286 109.573 13.9141C109.307 13.7995 109.092 13.6224 108.928 13.3828C108.764 13.1432 108.682 12.8424 108.682 12.4805V6.5625Z" fill="black"/>
<path fill-rule="evenodd" clip-rule="evenodd" d="M115 0.5H3C1.61929 0.5 0.5 1.61929 0.5 3V17C0.5 18.3807 1.61929 19.5 3 19.5H115C116.381 19.5 117.5 18.3807 117.5 17V3C117.5 1.61929 116.381 0.5 115 0.5ZM3 0C1.34315 0 0 1.34315 0 3V17C0 18.6569 1.34314 20 3 20H115C116.657 20 118 18.6569 118 17V3C118 1.34315 116.657 0 115 0H3Z" fill="#E0E0E0"/>
</svg>
