<svg width="107" height="20" viewBox="0 0 107 20" fill="none" xmlns="http://www.w3.org/2000/svg">
<path d="M1 4C1 2.34315 2.34315 1 4 1H103C104.657 1 106 2.34315 106 4V16C106 17.6569 104.657 19 103 19H4C2.34315 19 1 17.6569 1 16V4Z" fill="#FAFAFA"/>
<path d="M13.666 4.5H7.66602C6.97566 4.5 6.41602 5.05964 6.41602 5.75V11.5833C6.41602 12.2737 6.97566 12.8333 7.66602 12.8333H13.666C14.3564 12.8333 14.916 12.2737 14.916 11.5833V5.75C14.916 5.05964 14.3564 4.5 13.666 4.5Z" stroke="black" stroke-width="0.833333"/>
<path d="M16.334 7.16666H10.334C9.64363 7.16666 9.08398 7.7263 9.08398 8.41666V14.25C9.08398 14.9403 9.64363 15.5 10.334 15.5H16.334C17.0243 15.5 17.584 14.9403 17.584 14.25V8.41666C17.584 7.7263 17.0243 7.16666 16.334 7.16666Z" stroke="black" stroke-width="0.833333"/>
<path d="M30.4007 10.3636C30.4007 8.03764 29.0086 6.62784 27.1265 6.62784C25.2373 6.62784 23.8488 8.03764 23.8488 10.3636C23.8488 12.6861 25.2373 14.0994 27.1265 14.0994C29.0086 14.0994 30.4007 12.6896 30.4007 10.3636ZM29.314 10.3636C29.314 12.1357 28.3765 13.098 27.1265 13.098C25.873 13.098 24.939 12.1357 24.939 10.3636C24.939 8.59162 25.873 7.62926 27.1265 7.62926C28.3765 7.62926 29.314 8.59162 29.314 10.3636ZM31.6835 16.0455H32.7453V13.1513H32.8092C33.001 13.4993 33.3916 14.1065 34.3859 14.1065C35.7069 14.1065 36.6657 13.0483 36.6657 11.2834C36.6657 9.51491 35.6927 8.47443 34.3753 8.47443C33.3632 8.47443 32.9974 9.09233 32.8092 9.42969H32.7204V8.54545H31.6835V16.0455ZM32.724 11.2727C32.724 10.1328 33.2211 9.37642 34.148 9.37642C35.1104 9.37642 35.5933 10.1896 35.5933 11.2727C35.5933 12.3665 35.0961 13.201 34.148 13.201C33.2354 13.201 32.724 12.4197 32.724 11.2727ZM40.2062 14.1101C41.3959 14.1101 42.2375 13.5241 42.479 12.6364L41.474 12.4553C41.2822 12.9702 40.8206 13.233 40.2169 13.233C39.3078 13.233 38.697 12.6435 38.6686 11.5923H42.5464V11.2159C42.5464 9.24503 41.3675 8.47443 40.1317 8.47443C38.6118 8.47443 37.6104 9.6321 37.6104 11.3082C37.6104 13.0021 38.5976 14.1101 40.2062 14.1101ZM38.6721 10.7969C38.7148 10.0227 39.2758 9.35156 40.1388 9.35156C40.9626 9.35156 41.5024 9.96236 41.5059 10.7969H38.6721ZM44.7863 10.7614C44.7863 9.89134 45.319 9.39418 46.0576 9.39418C46.7785 9.39418 47.2153 9.86648 47.2153 10.6584V14H48.2771V10.5305C48.2771 9.18111 47.5349 8.47443 46.4198 8.47443C45.5995 8.47443 45.0633 8.8544 44.8112 9.43324H44.7437V8.54545H43.7245V14H44.7863V10.7614ZM52.3476 14H53.4094V8.54545H52.3476V14ZM52.8838 7.70384C53.2496 7.70384 53.555 7.41974 53.555 7.07173C53.555 6.72372 53.2496 6.43608 52.8838 6.43608C52.5145 6.43608 52.2126 6.72372 52.2126 7.07173C52.2126 7.41974 52.5145 7.70384 52.8838 7.70384ZM55.8996 10.7614C55.8996 9.89134 56.4323 9.39418 57.1709 9.39418C57.8918 9.39418 58.3286 9.86648 58.3286 10.6584V14H59.3904V10.5305C59.3904 9.18111 58.6482 8.47443 57.5331 8.47443C56.7128 8.47443 56.1766 8.8544 55.9244 9.43324H55.857V8.54545H54.8378V14H55.8996V10.7614Z" fill="#616161"/>
<path d="M69.8635 10.3636C69.8635 8.03764 68.4715 6.62784 66.5894 6.62784C64.7002 6.62784 63.3117 8.03764 63.3117 10.3636C63.3117 12.6861 64.7002 14.0994 66.5894 14.0994C68.4715 14.0994 69.8635 12.6896 69.8635 10.3636ZM68.7769 10.3636C68.7769 12.1357 67.8394 13.098 66.5894 13.098C65.3358 13.098 64.4019 12.1357 64.4019 10.3636C64.4019 8.59162 65.3358 7.62926 66.5894 7.62926C67.8394 7.62926 68.7769 8.59162 68.7769 10.3636ZM71.1464 14H72.2082V10.669C72.2082 9.95526 72.7586 9.44034 73.5115 9.44034C73.7316 9.44034 73.9802 9.4794 74.0654 9.50426V8.48864C73.9589 8.47443 73.7494 8.46378 73.6144 8.46378C72.9752 8.46378 72.4284 8.82599 72.2295 9.41193H72.1727V8.54545H71.1464V14ZM77.0866 14.1101C78.3756 14.1101 79.2101 13.3359 79.3273 12.2741H78.2939C78.159 12.8636 77.7009 13.2116 77.0937 13.2116C76.1952 13.2116 75.6164 12.4624 75.6164 11.2727C75.6164 10.1044 76.2059 9.36932 77.0937 9.36932C77.7684 9.36932 78.1803 9.79545 78.2939 10.3068H79.3273C79.2137 9.20597 78.3153 8.47443 77.0759 8.47443C75.5383 8.47443 74.5439 9.6321 74.5439 11.2976C74.5439 12.9418 75.5028 14.1101 77.0866 14.1101ZM81.5246 10.7614C81.5246 9.89134 82.075 9.39418 82.8314 9.39418C83.5629 9.39418 83.9997 9.85938 83.9997 10.6584V14H85.0615V10.5305C85.0615 9.17045 84.3158 8.47443 83.1936 8.47443C82.3449 8.47443 81.8335 8.84375 81.5779 9.43324H81.5104V6.72727H80.4628V14H81.5246V10.7614ZM88.8293 14.1101C90.0189 14.1101 90.8605 13.5241 91.102 12.6364L90.097 12.4553C89.9053 12.9702 89.4436 13.233 88.8399 13.233C87.9308 13.233 87.32 12.6435 87.2916 11.5923H91.1695V11.2159C91.1695 9.24503 89.9905 8.47443 88.7547 8.47443C87.2348 8.47443 86.2334 9.6321 86.2334 11.3082C86.2334 13.0021 87.2206 14.1101 88.8293 14.1101ZM87.2952 10.7969C87.3378 10.0227 87.8989 9.35156 88.7618 9.35156C89.5857 9.35156 90.1254 9.96236 90.129 10.7969H87.2952ZM96.4349 9.87713C96.2148 9.02841 95.5507 8.47443 94.3717 8.47443C93.1395 8.47443 92.2659 9.12429 92.2659 10.0902C92.2659 10.8643 92.7346 11.3793 93.7574 11.6065L94.6807 11.8089C95.2062 11.9261 95.4513 12.1605 95.4513 12.5014C95.4513 12.924 95.0003 13.2543 94.3042 13.2543C93.6686 13.2543 93.2602 12.9808 93.1324 12.4446L92.1061 12.6009C92.2836 13.5668 93.0862 14.1101 94.3113 14.1101C95.6288 14.1101 96.5415 13.4105 96.5415 12.4233C96.5415 11.6527 96.0514 11.1768 95.05 10.946L94.1835 10.7472C93.5834 10.6051 93.3241 10.4027 93.3277 10.0334C93.3241 9.61435 93.7787 9.31605 94.3824 9.31605C95.0429 9.31605 95.3483 9.68182 95.4726 10.0476L96.4349 9.87713ZM100.255 8.54545H99.1365V7.23864H98.0747V8.54545H97.2757V9.39773H98.0747V12.6186C98.0711 13.6094 98.8275 14.0888 99.6656 14.071C100.003 14.0675 100.23 14.0036 100.354 13.9574L100.163 13.0803C100.092 13.0945 99.9603 13.1264 99.7899 13.1264C99.4454 13.1264 99.1365 13.0128 99.1365 12.3984V9.39773H100.255V8.54545Z" fill="black"/>
<path d="M4 1.25H103V0.75H4V1.25ZM105.75 4V16H106.25V4H105.75ZM103 18.75H4V19.25H103V18.75ZM1.25 16V4H0.75V16H1.25ZM4 18.75C2.48122 18.75 1.25 17.5188 1.25 16H0.75C0.75 17.7949 2.20507 19.25 4 19.25V18.75ZM105.75 16C105.75 17.5188 104.519 18.75 103 18.75V19.25C104.795 19.25 106.25 17.7949 106.25 16H105.75ZM103 1.25C104.519 1.25 105.75 2.48122 105.75 4H106.25C106.25 2.20507 104.795 0.75 103 0.75V1.25ZM4 0.75C2.20507 0.75 0.75 2.20508 0.75 4H1.25C1.25 2.48122 2.48122 1.25 4 1.25V0.75Z" fill="#E0E0E0"/>
</svg>
