<svg width="115" height="20" viewBox="0 0 115 20" fill="none" xmlns="http://www.w3.org/2000/svg">
<path d="M1 4C1 2.34315 2.34315 1 4 1H111C112.657 1 114 2.34315 114 4V16C114 17.6569 112.657 19 111 19H4C2.34315 19 1 17.6569 1 16V4Z" fill="#FAFAFA"/>
<path d="M13.666 4.5H7.66602C6.97566 4.5 6.41602 5.05964 6.41602 5.75V11.5833C6.41602 12.2737 6.97566 12.8333 7.66602 12.8333H13.666C14.3564 12.8333 14.916 12.2737 14.916 11.5833V5.75C14.916 5.05964 14.3564 4.5 13.666 4.5Z" stroke="black" stroke-width="0.833333"/>
<path d="M16.334 7.16666H10.334C9.64363 7.16666 9.08398 7.7263 9.08398 8.41666V14.25C9.08398 14.9403 9.64363 15.5 10.334 15.5H16.334C17.0243 15.5 17.584 14.9403 17.584 14.25V8.41666C17.584 7.7263 17.0243 7.16666 16.334 7.16666Z" stroke="black" stroke-width="0.833333"/>
<path d="M31.2407 10.5C31.2407 11.3542 31.0845 12.0885 30.772 12.7031C30.4595 13.3151 30.0311 13.7865 29.4868 14.1172C28.9452 14.4453 28.3293 14.6094 27.6392 14.6094C26.9465 14.6094 26.328 14.4453 25.7837 14.1172C25.242 13.7865 24.8149 13.3138 24.5024 12.6992C24.1899 12.0846 24.0337 11.3516 24.0337 10.5C24.0337 9.64583 24.1899 8.91276 24.5024 8.30078C24.8149 7.6862 25.242 7.21484 25.7837 6.88672C26.328 6.55599 26.9465 6.39062 27.6392 6.39062C28.3293 6.39062 28.9452 6.55599 29.4868 6.88672C30.0311 7.21484 30.4595 7.6862 30.772 8.30078C31.0845 8.91276 31.2407 9.64583 31.2407 10.5ZM30.0454 10.5C30.0454 9.84896 29.9399 9.30078 29.729 8.85547C29.5207 8.40755 29.2342 8.06901 28.8696 7.83984C28.5076 7.60807 28.0975 7.49219 27.6392 7.49219C27.1782 7.49219 26.7668 7.60807 26.4048 7.83984C26.0428 8.06901 25.7563 8.40755 25.5454 8.85547C25.3371 9.30078 25.2329 9.84896 25.2329 10.5C25.2329 11.151 25.3371 11.7005 25.5454 12.1484C25.7563 12.5937 26.0428 12.9323 26.4048 13.1641C26.7668 13.3932 27.1782 13.5078 27.6392 13.5078C28.0975 13.5078 28.5076 13.3932 28.8696 13.1641C29.2342 12.9323 29.5207 12.5937 29.729 12.1484C29.9399 11.7005 30.0454 11.151 30.0454 10.5ZM32.6519 16.75V8.5H33.7925V9.47266H33.8901C33.9578 9.34766 34.0555 9.20312 34.1831 9.03906C34.3107 8.875 34.4878 8.73177 34.7144 8.60937C34.9409 8.48438 35.2404 8.42188 35.6128 8.42188C36.0972 8.42188 36.5295 8.54427 36.9097 8.78906C37.2899 9.03385 37.5881 9.38672 37.8042 9.84766C38.0229 10.3086 38.1323 10.8633 38.1323 11.5117C38.1323 12.1602 38.0243 12.7161 37.8081 13.1797C37.592 13.6406 37.2951 13.9961 36.9175 14.2461C36.5399 14.4935 36.1089 14.6172 35.6245 14.6172C35.2599 14.6172 34.9618 14.556 34.73 14.4336C34.5008 14.3112 34.3211 14.168 34.1909 14.0039C34.0607 13.8398 33.9604 13.694 33.8901 13.5664H33.8198V16.75H32.6519ZM33.7964 11.5C33.7964 11.9219 33.8576 12.2917 33.98 12.6094C34.1024 12.9271 34.2795 13.1758 34.5112 13.3555C34.743 13.5326 35.0269 13.6211 35.3628 13.6211C35.7118 13.6211 36.0034 13.5286 36.2378 13.3437C36.4722 13.1562 36.6493 12.9023 36.769 12.582C36.8914 12.2617 36.9526 11.901 36.9526 11.5C36.9526 11.1042 36.8927 10.7487 36.7729 10.4336C36.6558 10.1185 36.4787 9.86979 36.2417 9.6875C36.0073 9.50521 35.7144 9.41406 35.3628 9.41406C35.0243 9.41406 34.7378 9.5013 34.5034 9.67578C34.2716 9.85026 34.0959 10.0937 33.9761 10.4062C33.8563 10.7187 33.7964 11.0833 33.7964 11.5ZM42.0269 14.6211C41.4357 14.6211 40.9266 14.4948 40.4995 14.2422C40.075 13.987 39.7469 13.6289 39.5151 13.168C39.286 12.7044 39.1714 12.1615 39.1714 11.5391C39.1714 10.9245 39.286 10.3828 39.5151 9.91406C39.7469 9.44531 40.0698 9.07943 40.4839 8.81641C40.9006 8.55339 41.3875 8.42188 41.9448 8.42188C42.2834 8.42188 42.6115 8.47786 42.9292 8.58984C43.2469 8.70182 43.5321 8.8776 43.7847 9.11719C44.0373 9.35677 44.2365 9.66797 44.3823 10.0508C44.5282 10.431 44.6011 10.8932 44.6011 11.4375V11.8516H39.8315V10.9766H43.4565C43.4565 10.6693 43.394 10.3971 43.269 10.1602C43.144 9.92057 42.9683 9.73177 42.7417 9.59375C42.5177 9.45573 42.2547 9.38672 41.9526 9.38672C41.6245 9.38672 41.3381 9.46745 41.0933 9.62891C40.8511 9.78776 40.6636 9.99609 40.5308 10.2539C40.4006 10.5091 40.3354 10.7865 40.3354 11.0859V11.7695C40.3354 12.1706 40.4058 12.5117 40.5464 12.793C40.6896 13.0742 40.8888 13.2891 41.144 13.4375C41.3993 13.5833 41.6974 13.6562 42.0386 13.6562C42.2599 13.6562 42.4618 13.625 42.644 13.5625C42.8263 13.4974 42.9839 13.401 43.1167 13.2734C43.2495 13.1458 43.3511 12.9883 43.4214 12.8008L44.5269 13C44.4383 13.3255 44.2795 13.6107 44.0503 13.8555C43.8237 14.0977 43.5386 14.2865 43.1948 14.4219C42.8537 14.5547 42.4644 14.6211 42.0269 14.6211ZM47.0649 10.9375V14.5H45.897V8.5H47.0181V9.47656H47.0923C47.2303 9.15885 47.4465 8.90365 47.7407 8.71094C48.0376 8.51823 48.4113 8.42188 48.8618 8.42188C49.2707 8.42188 49.6287 8.50781 49.936 8.67969C50.2433 8.84896 50.4816 9.10156 50.6509 9.4375C50.8201 9.77344 50.9048 10.1888 50.9048 10.6836V14.5H49.7368V10.8242C49.7368 10.3893 49.6235 10.0495 49.397 9.80469C49.1704 9.55729 48.8592 9.43359 48.4634 9.43359C48.1925 9.43359 47.9517 9.49219 47.7407 9.60937C47.5324 9.72656 47.367 9.89844 47.2446 10.125C47.1248 10.349 47.0649 10.6198 47.0649 10.9375ZM55.3823 14.5V8.5H56.5503V14.5H55.3823ZM55.9722 7.57422C55.769 7.57422 55.5946 7.50651 55.4487 7.37109C55.3055 7.23307 55.2339 7.06901 55.2339 6.87891C55.2339 6.6862 55.3055 6.52214 55.4487 6.38672C55.5946 6.2487 55.769 6.17969 55.9722 6.17969C56.1753 6.17969 56.3485 6.2487 56.4917 6.38672C56.6375 6.52214 56.7104 6.6862 56.7104 6.87891C56.7104 7.06901 56.6375 7.23307 56.4917 7.37109C56.3485 7.50651 56.1753 7.57422 55.9722 7.57422ZM59.2896 10.9375V14.5H58.1216V8.5H59.2427V9.47656H59.3169C59.4549 9.15885 59.6711 8.90365 59.9653 8.71094C60.2622 8.51823 60.6359 8.42188 61.0864 8.42188C61.4953 8.42188 61.8534 8.50781 62.1606 8.67969C62.4679 8.84896 62.7062 9.10156 62.8755 9.4375C63.0448 9.77344 63.1294 10.1888 63.1294 10.6836V14.5H61.9614V10.8242C61.9614 10.3893 61.8481 10.0495 61.6216 9.80469C61.395 9.55729 61.0838 9.43359 60.688 9.43359C60.4172 9.43359 60.1763 9.49219 59.9653 9.60937C59.757 9.72656 59.5916 9.89844 59.4692 10.125C59.3494 10.349 59.2896 10.6198 59.2896 10.9375Z" fill="#616161"/>
<path d="M74.6499 10.5C74.6499 11.3542 74.4937 12.0885 74.1812 12.7031C73.8687 13.3151 73.4403 13.7865 72.896 14.1172C72.3543 14.4453 71.7384 14.6094 71.0483 14.6094C70.3556 14.6094 69.7371 14.4453 69.1929 14.1172C68.6512 13.7865 68.2241 13.3138 67.9116 12.6992C67.5991 12.0846 67.4429 11.3516 67.4429 10.5C67.4429 9.64583 67.5991 8.91276 67.9116 8.30078C68.2241 7.6862 68.6512 7.21484 69.1929 6.88672C69.7371 6.55599 70.3556 6.39062 71.0483 6.39062C71.7384 6.39062 72.3543 6.55599 72.896 6.88672C73.4403 7.21484 73.8687 7.6862 74.1812 8.30078C74.4937 8.91276 74.6499 9.64583 74.6499 10.5ZM73.4546 10.5C73.4546 9.84896 73.3491 9.30078 73.1382 8.85547C72.9299 8.40755 72.6434 8.06901 72.2788 7.83984C71.9168 7.60807 71.5067 7.49219 71.0483 7.49219C70.5874 7.49219 70.1759 7.60807 69.814 7.83984C69.452 8.06901 69.1655 8.40755 68.9546 8.85547C68.7463 9.30078 68.6421 9.84896 68.6421 10.5C68.6421 11.151 68.7463 11.7005 68.9546 12.1484C69.1655 12.5937 69.452 12.9323 69.814 13.1641C70.1759 13.3932 70.5874 13.5078 71.0483 13.5078C71.5067 13.5078 71.9168 13.3932 72.2788 13.1641C72.6434 12.9323 72.9299 12.5937 73.1382 12.1484C73.3491 11.7005 73.4546 11.151 73.4546 10.5ZM76.061 14.5V8.5H77.1899V9.45312H77.2524C77.3618 9.13021 77.5545 8.8763 77.8306 8.69141C78.1092 8.50391 78.4243 8.41016 78.7759 8.41016C78.8488 8.41016 78.9347 8.41276 79.0337 8.41797C79.1353 8.42318 79.2147 8.42969 79.272 8.4375V9.55469C79.2251 9.54167 79.1418 9.52734 79.022 9.51172C78.9022 9.49349 78.7824 9.48437 78.6626 9.48437C78.3866 9.48437 78.1405 9.54297 77.9243 9.66016C77.7108 9.77474 77.5415 9.9349 77.4165 10.1406C77.2915 10.3437 77.229 10.5755 77.229 10.8359V14.5H76.061ZM82.5952 14.6211C82.0145 14.6211 81.5145 14.4896 81.0952 14.2266C80.6785 13.9609 80.3582 13.5951 80.1343 13.1289C79.9103 12.6628 79.7983 12.1289 79.7983 11.5273C79.7983 10.918 79.9129 10.3802 80.1421 9.91406C80.3713 9.44531 80.6942 9.07943 81.1108 8.81641C81.5275 8.55339 82.0184 8.42188 82.5835 8.42188C83.0392 8.42188 83.4455 8.50651 83.8022 8.67578C84.159 8.84245 84.4468 9.07682 84.6655 9.37891C84.8869 9.68099 85.0184 10.0339 85.0601 10.4375H83.9233C83.8608 10.1562 83.7176 9.91406 83.4937 9.71094C83.2723 9.50781 82.9754 9.40625 82.603 9.40625C82.2775 9.40625 81.9924 9.49219 81.7476 9.66406C81.5054 9.83333 81.3166 10.0755 81.1812 10.3906C81.0457 10.7031 80.978 11.0729 80.978 11.5C80.978 11.9375 81.0444 12.3151 81.1772 12.6328C81.3101 12.9505 81.4976 13.1966 81.7397 13.3711C81.9845 13.5456 82.2723 13.6328 82.603 13.6328C82.8244 13.6328 83.0249 13.5924 83.2046 13.5117C83.3869 13.4284 83.5392 13.3099 83.6616 13.1562C83.7866 13.0026 83.8739 12.8177 83.9233 12.6016H85.0601C85.0184 12.9896 84.8921 13.3359 84.6812 13.6406C84.4702 13.9453 84.1877 14.1849 83.8335 14.3594C83.4819 14.5339 83.0692 14.6211 82.5952 14.6211ZM87.4771 10.9375V14.5H86.3091V6.5H87.4614V9.47656H87.5356C87.6763 9.15365 87.8911 8.89714 88.1802 8.70703C88.4692 8.51693 88.8468 8.42188 89.313 8.42188C89.7244 8.42188 90.0838 8.50651 90.3911 8.67578C90.701 8.84505 90.9406 9.09766 91.1099 9.43359C91.2817 9.76693 91.3677 10.1836 91.3677 10.6836V14.5H90.1997V10.8242C90.1997 10.3841 90.0864 10.043 89.8599 9.80078C89.6333 9.55599 89.3182 9.43359 88.9146 9.43359C88.6385 9.43359 88.3911 9.49219 88.1724 9.60937C87.9562 9.72656 87.7856 9.89844 87.6606 10.125C87.5382 10.349 87.4771 10.6198 87.4771 10.9375ZM95.5122 14.6211C94.9211 14.6211 94.4119 14.4948 93.9849 14.2422C93.5604 13.987 93.2323 13.6289 93.0005 13.168C92.7713 12.7044 92.6567 12.1615 92.6567 11.5391C92.6567 10.9245 92.7713 10.3828 93.0005 9.91406C93.2323 9.44531 93.5552 9.07943 93.9692 8.81641C94.3859 8.55339 94.8729 8.42188 95.4302 8.42188C95.7687 8.42188 96.0968 8.47786 96.4146 8.58984C96.7323 8.70182 97.0174 8.8776 97.27 9.11719C97.5226 9.35677 97.7218 9.66797 97.8677 10.0508C98.0135 10.431 98.0864 10.8932 98.0864 11.4375V11.8516H93.3169V10.9766H96.9419C96.9419 10.6693 96.8794 10.3971 96.7544 10.1602C96.6294 9.92057 96.4536 9.73177 96.2271 9.59375C96.0031 9.45573 95.7401 9.38672 95.438 9.38672C95.1099 9.38672 94.8234 9.46745 94.5786 9.62891C94.3364 9.78776 94.1489 9.99609 94.0161 10.2539C93.8859 10.5091 93.8208 10.7865 93.8208 11.0859V11.7695C93.8208 12.1706 93.8911 12.5117 94.0317 12.793C94.175 13.0742 94.3742 13.2891 94.6294 13.4375C94.8846 13.5833 95.1828 13.6562 95.5239 13.6562C95.7453 13.6562 95.9471 13.625 96.1294 13.5625C96.3117 13.4974 96.4692 13.401 96.6021 13.2734C96.7349 13.1458 96.8364 12.9883 96.9067 12.8008L98.0122 13C97.9237 13.3255 97.7648 13.6107 97.5356 13.8555C97.3091 14.0977 97.0239 14.2865 96.6802 14.4219C96.339 14.5547 95.9497 14.6211 95.5122 14.6211ZM103.878 9.96484L102.82 10.1523C102.776 10.0169 102.705 9.88802 102.609 9.76562C102.515 9.64323 102.388 9.54297 102.226 9.46484C102.065 9.38672 101.863 9.34766 101.621 9.34766C101.29 9.34766 101.014 9.42187 100.792 9.57031C100.571 9.71615 100.46 9.90495 100.46 10.1367C100.46 10.3372 100.535 10.4987 100.683 10.6211C100.832 10.7435 101.071 10.8437 101.402 10.9219L102.355 11.1406C102.907 11.2682 103.319 11.4648 103.589 11.7305C103.86 11.9961 103.996 12.3411 103.996 12.7656C103.996 13.125 103.891 13.4453 103.683 13.7266C103.477 14.0052 103.19 14.224 102.82 14.3828C102.453 14.5417 102.027 14.6211 101.542 14.6211C100.871 14.6211 100.322 14.4779 99.8979 14.1914C99.4735 13.9023 99.2131 13.4922 99.1167 12.9609L100.246 12.7891C100.316 13.0833 100.46 13.306 100.679 13.457C100.898 13.6055 101.183 13.6797 101.535 13.6797C101.917 13.6797 102.223 13.6003 102.453 13.4414C102.682 13.2799 102.796 13.0833 102.796 12.8516C102.796 12.6641 102.726 12.5065 102.585 12.3789C102.447 12.2513 102.235 12.1549 101.949 12.0898L100.933 11.8672C100.373 11.7396 99.9591 11.5365 99.6909 11.2578C99.4253 10.9792 99.2925 10.6263 99.2925 10.1992C99.2925 9.84505 99.3914 9.53516 99.5894 9.26953C99.7873 9.00391 100.061 8.79687 100.41 8.64844C100.759 8.4974 101.158 8.42188 101.609 8.42188C102.257 8.42188 102.768 8.5625 103.14 8.84375C103.513 9.1224 103.759 9.49609 103.878 9.96484ZM108.081 8.5V9.4375H104.803V8.5H108.081ZM105.682 7.0625H106.85V12.7383C106.85 12.9648 106.884 13.1354 106.952 13.25C107.019 13.362 107.107 13.4388 107.213 13.4805C107.323 13.5195 107.441 13.5391 107.569 13.5391C107.663 13.5391 107.745 13.5326 107.815 13.5195C107.885 13.5065 107.94 13.4961 107.979 13.4883L108.19 14.4531C108.122 14.4792 108.026 14.5052 107.901 14.5313C107.776 14.5599 107.62 14.5755 107.432 14.5781C107.125 14.5833 106.838 14.5286 106.573 14.4141C106.307 14.2995 106.092 14.1224 105.928 13.8828C105.764 13.6432 105.682 13.3424 105.682 12.9805V7.0625Z" fill="black"/>
<path d="M4 1.25H111V0.75H4V1.25ZM113.75 4V16H114.25V4H113.75ZM111 18.75H4V19.25H111V18.75ZM1.25 16V4H0.75V16H1.25ZM4 18.75C2.48122 18.75 1.25 17.5188 1.25 16H0.75C0.75 17.7949 2.20508 19.25 4 19.25V18.75ZM113.75 16C113.75 17.5188 112.519 18.75 111 18.75V19.25C112.795 19.25 114.25 17.7949 114.25 16H113.75ZM111 1.25C112.519 1.25 113.75 2.48122 113.75 4H114.25C114.25 2.20507 112.795 0.75 111 0.75V1.25ZM4 0.75C2.20507 0.75 0.75 2.20508 0.75 4H1.25C1.25 2.48122 2.48122 1.25 4 1.25V0.75Z" fill="#E0E0E0"/>
</svg>
