<svg width="133" height="28" viewBox="0 0 133 28" fill="none" xmlns="http://www.w3.org/2000/svg">
<path d="M0 4C0 1.79086 1.79086 0 4 0H129C131.209 0 133 1.79086 133 4V24C133 26.2091 131.209 28 129 28H4C1.79086 28 0 26.2091 0 24V4Z" fill="#FAFAFA"/>
<path d="M17.9447 7.5835H10.9447C10.1392 7.5835 9.48633 8.23641 9.48633 9.04183V15.8474C9.48633 16.6528 10.1392 17.3057 10.9447 17.3057H17.9447C18.7501 17.3057 19.403 16.6528 19.403 15.8474V9.04183C19.403 8.23641 18.7501 7.5835 17.9447 7.5835Z" stroke="black" stroke-width="0.972222"/>
<path d="M21.056 10.6946H14.056C13.2506 10.6946 12.5977 11.3475 12.5977 12.1529V18.9585C12.5977 19.7639 13.2506 20.4168 14.056 20.4168H21.056C21.8614 20.4168 22.5143 19.7639 22.5143 18.9585V12.1529C22.5143 11.3475 21.8614 10.6946 21.056 10.6946Z" stroke="black" stroke-width="0.972222"/>
<path d="M39.5808 13.6364C39.5808 14.5682 39.4103 15.3693 39.0694 16.0398C38.7285 16.7074 38.2612 17.2216 37.6674 17.5824C37.0765 17.9403 36.4047 18.1193 35.6518 18.1193C34.8961 18.1193 34.2214 17.9403 33.6277 17.5824C33.0368 17.2216 32.5708 16.706 32.2299 16.0355C31.889 15.3651 31.7186 14.5653 31.7186 13.6364C31.7186 12.7045 31.889 11.9048 32.2299 11.2372C32.5708 10.5668 33.0368 10.0526 33.6277 9.6946C34.2214 9.33381 34.8961 9.15341 35.6518 9.15341C36.4047 9.15341 37.0765 9.33381 37.6674 9.6946C38.2612 10.0526 38.7285 10.5668 39.0694 11.2372C39.4103 11.9048 39.5808 12.7045 39.5808 13.6364ZM38.2768 13.6364C38.2768 12.9261 38.1618 12.3281 37.9316 11.8423C37.7044 11.3537 37.3919 10.9844 36.9941 10.7344C36.5993 10.4815 36.1518 10.3551 35.6518 10.3551C35.149 10.3551 34.7001 10.4815 34.3052 10.7344C33.9103 10.9844 33.5978 11.3537 33.3677 11.8423C33.1404 12.3281 33.0268 12.9261 33.0268 13.6364C33.0268 14.3466 33.1404 14.946 33.3677 15.4347C33.5978 15.9205 33.9103 16.2898 34.3052 16.5426C34.7001 16.7926 35.149 16.9176 35.6518 16.9176C36.1518 16.9176 36.5993 16.7926 36.9941 16.5426C37.3919 16.2898 37.7044 15.9205 37.9316 15.4347C38.1618 14.946 38.2768 14.3466 38.2768 13.6364ZM41.1202 20.4545V11.4545H42.3645V12.5156H42.4711C42.5449 12.3793 42.6515 12.2216 42.7907 12.0426C42.9299 11.8636 43.123 11.7074 43.3702 11.5739C43.6174 11.4375 43.9441 11.3693 44.3503 11.3693C44.8787 11.3693 45.3503 11.5028 45.7651 11.7699C46.1799 12.0369 46.5051 12.4219 46.7409 12.9247C46.9796 13.4276 47.0989 14.0327 47.0989 14.7401C47.0989 15.4474 46.981 16.054 46.7452 16.5597C46.5094 17.0625 46.1855 17.4503 45.7736 17.723C45.3617 17.9929 44.8915 18.1278 44.3631 18.1278C43.9654 18.1278 43.6401 18.0611 43.3873 17.9276C43.1373 17.794 42.9412 17.6378 42.7992 17.4588C42.6571 17.2798 42.5478 17.1207 42.4711 16.9815H42.3944V20.4545H41.1202ZM42.3688 14.7273C42.3688 15.1875 42.4355 15.5909 42.5691 15.9375C42.7026 16.2841 42.8958 16.5554 43.1486 16.7514C43.4015 16.9446 43.7111 17.0412 44.0776 17.0412C44.4583 17.0412 44.7765 16.9403 45.0321 16.7386C45.2878 16.5341 45.481 16.2571 45.6117 15.9077C45.7452 15.5582 45.812 15.1648 45.812 14.7273C45.812 14.2955 45.7466 13.9077 45.6159 13.5639C45.4881 13.2202 45.2949 12.9489 45.0364 12.75C44.7807 12.5511 44.4611 12.4517 44.0776 12.4517C43.7083 12.4517 43.3958 12.5469 43.1401 12.7372C42.8873 12.9276 42.6955 13.1932 42.5648 13.5341C42.4341 13.875 42.3688 14.2727 42.3688 14.7273ZM51.3475 18.1321C50.7026 18.1321 50.1472 17.9943 49.6813 17.7188C49.2182 17.4403 48.8603 17.0497 48.6074 16.5469C48.3574 16.0412 48.2324 15.4489 48.2324 14.7699C48.2324 14.0994 48.3574 13.5085 48.6074 12.9972C48.8603 12.4858 49.2125 12.0866 49.6642 11.7997C50.1188 11.5128 50.65 11.3693 51.258 11.3693C51.6273 11.3693 51.9853 11.4304 52.3319 11.5526C52.6784 11.6747 52.9895 11.8665 53.2651 12.1278C53.5407 12.3892 53.758 12.7287 53.9171 13.1463C54.0762 13.5611 54.1557 14.0653 54.1557 14.6591V15.1108H48.9526V14.1562H52.9071C52.9071 13.821 52.839 13.5241 52.7026 13.2656C52.5662 13.0043 52.3745 12.7983 52.1273 12.6477C51.883 12.4972 51.5961 12.4219 51.2665 12.4219C50.9086 12.4219 50.5961 12.5099 50.329 12.6861C50.0648 12.8594 49.8603 13.0866 49.7154 13.3679C49.5733 13.6463 49.5023 13.9489 49.5023 14.2756V15.0213C49.5023 15.4588 49.579 15.831 49.7324 16.1378C49.8887 16.4446 50.106 16.679 50.3844 16.8409C50.6628 17 50.9881 17.0795 51.3603 17.0795C51.6017 17.0795 51.8219 17.0455 52.0208 16.9773C52.2196 16.9062 52.3915 16.8011 52.5364 16.6619C52.6813 16.5227 52.7921 16.3509 52.8688 16.1463L54.0748 16.3636C53.9782 16.7187 53.8049 17.0298 53.5549 17.2969C53.3077 17.5611 52.9966 17.767 52.6216 17.9148C52.2495 18.0597 51.8248 18.1321 51.3475 18.1321ZM56.8436 14.1136V18H55.5694V11.4545H56.7924V12.5199H56.8734C57.024 12.1733 57.2598 11.8949 57.5808 11.6847C57.9047 11.4744 58.3123 11.3693 58.8038 11.3693C59.2498 11.3693 59.6404 11.4631 59.9757 11.6506C60.3109 11.8352 60.5708 12.1108 60.7555 12.4773C60.9402 12.8437 61.0325 13.2969 61.0325 13.8366V18H59.7583V13.9901C59.7583 13.5156 59.6348 13.1449 59.3876 12.8778C59.1404 12.608 58.801 12.473 58.3691 12.473C58.0737 12.473 57.8109 12.5369 57.5808 12.6648C57.3535 12.7926 57.1731 12.9801 57.0396 13.2273C56.9089 13.4716 56.8436 13.767 56.8436 14.1136ZM65.9171 18V11.4545H67.1912V18H65.9171ZM66.5605 10.4446C66.339 10.4446 66.1486 10.3707 65.9895 10.223C65.8333 10.0724 65.7551 9.89347 65.7551 9.68608C65.7551 9.47585 65.8333 9.29687 65.9895 9.14915C66.1486 8.99858 66.339 8.9233 66.5605 8.9233C66.7821 8.9233 66.9711 8.99858 67.1273 9.14915C67.2864 9.29687 67.3659 9.47585 67.3659 9.68608C67.3659 9.89347 67.2864 10.0724 67.1273 10.223C66.9711 10.3707 66.7821 10.4446 66.5605 10.4446ZM70.1795 14.1136V18H68.9054V11.4545H70.1284V12.5199H70.2093C70.3599 12.1733 70.5957 11.8949 70.9167 11.6847C71.2406 11.4744 71.6483 11.3693 72.1397 11.3693C72.5858 11.3693 72.9764 11.4631 73.3116 11.6506C73.6468 11.8352 73.9068 12.1108 74.0914 12.4773C74.2761 12.8437 74.3684 13.2969 74.3684 13.8366V18H73.0943V13.9901C73.0943 13.5156 72.9707 13.1449 72.7235 12.8778C72.4764 12.608 72.1369 12.473 71.7051 12.473C71.4096 12.473 71.1468 12.5369 70.9167 12.6648C70.6895 12.7926 70.5091 12.9801 70.3755 13.2273C70.2449 13.4716 70.1795 13.767 70.1795 14.1136Z" fill="#616161"/>
<path d="M86.9363 13.6364C86.9363 14.5682 86.7658 15.3693 86.4249 16.0398C86.084 16.7074 85.6167 17.2216 85.0229 17.5824C84.432 17.9403 83.7601 18.1193 83.0073 18.1193C82.2516 18.1193 81.5769 17.9403 80.9831 17.5824C80.3922 17.2216 79.9263 16.706 79.5854 16.0355C79.2445 15.3651 79.074 14.5653 79.074 13.6364C79.074 12.7045 79.2445 11.9048 79.5854 11.2372C79.9263 10.5668 80.3922 10.0526 80.9831 9.6946C81.5769 9.33381 82.2516 9.15341 83.0073 9.15341C83.7601 9.15341 84.432 9.33381 85.0229 9.6946C85.6167 10.0526 86.084 10.5668 86.4249 11.2372C86.7658 11.9048 86.9363 12.7045 86.9363 13.6364ZM85.6323 13.6364C85.6323 12.9261 85.5172 12.3281 85.2871 11.8423C85.0598 11.3537 84.7473 10.9844 84.3496 10.7344C83.9547 10.4815 83.5073 10.3551 83.0073 10.3551C82.5044 10.3551 82.0556 10.4815 81.6607 10.7344C81.2658 10.9844 80.9533 11.3537 80.7232 11.8423C80.4959 12.3281 80.3823 12.9261 80.3823 13.6364C80.3823 14.3466 80.4959 14.946 80.7232 15.4347C80.9533 15.9205 81.2658 16.2898 81.6607 16.5426C82.0556 16.7926 82.5044 16.9176 83.0073 16.9176C83.5073 16.9176 83.9547 16.7926 84.3496 16.5426C84.7473 16.2898 85.0598 15.9205 85.2871 15.4347C85.5172 14.946 85.6323 14.3466 85.6323 13.6364ZM88.4757 18V11.4545H89.7072V12.4943H89.7754C89.8947 12.142 90.1049 11.8651 90.4061 11.6634C90.71 11.4588 91.0538 11.3565 91.4373 11.3565C91.5169 11.3565 91.6106 11.3594 91.7186 11.3651C91.8294 11.3707 91.916 11.3778 91.9785 11.3864V12.6051C91.9274 12.5909 91.8365 12.5753 91.7058 12.5582C91.5751 12.5384 91.4444 12.5284 91.3137 12.5284C91.0126 12.5284 90.7441 12.5923 90.5083 12.7202C90.2754 12.8452 90.0907 13.0199 89.9544 13.2443C89.818 13.4659 89.7498 13.7187 89.7498 14.0028V18H88.4757ZM95.6039 18.1321C94.9703 18.1321 94.4249 17.9886 93.9675 17.7017C93.513 17.4119 93.1635 17.0128 92.9192 16.5043C92.6749 15.9957 92.5527 15.4134 92.5527 14.7571C92.5527 14.0923 92.6777 13.5057 92.9277 12.9972C93.1777 12.4858 93.53 12.0866 93.9846 11.7997C94.4391 11.5128 94.9746 11.3693 95.5911 11.3693C96.0882 11.3693 96.5314 11.4616 96.9206 11.6463C97.3098 11.8281 97.6238 12.0838 97.8624 12.4134C98.1039 12.7429 98.2473 13.1278 98.2928 13.5682H97.0527C96.9846 13.2614 96.8283 12.9972 96.584 12.7756C96.3425 12.554 96.0186 12.4432 95.6124 12.4432C95.2573 12.4432 94.9462 12.5369 94.6792 12.7244C94.415 12.9091 94.209 13.1733 94.0613 13.517C93.9135 13.858 93.8397 14.2614 93.8397 14.7273C93.8397 15.2045 93.9121 15.6165 94.057 15.9631C94.2019 16.3097 94.4064 16.5781 94.6706 16.7685C94.9377 16.9588 95.2516 17.054 95.6124 17.054C95.8539 17.054 96.0726 17.0099 96.2686 16.9219C96.4675 16.831 96.6337 16.7017 96.7672 16.5341C96.9036 16.3665 96.9988 16.1648 97.0527 15.929H98.2928C98.2473 16.3523 98.1096 16.7301 97.8794 17.0625C97.6493 17.3949 97.3411 17.6562 96.9547 17.8466C96.5712 18.0369 96.1209 18.1321 95.6039 18.1321ZM100.93 14.1136V18H99.6554V9.27273H100.912V12.5199H100.993C101.147 12.1676 101.381 11.8878 101.697 11.6804C102.012 11.473 102.424 11.3693 102.932 11.3693C103.381 11.3693 103.773 11.4616 104.108 11.6463C104.447 11.831 104.708 12.1065 104.893 12.473C105.08 12.8366 105.174 13.2912 105.174 13.8366V18H103.9V13.9901C103.9 13.5099 103.776 13.1378 103.529 12.8736C103.282 12.6065 102.938 12.473 102.498 12.473C102.197 12.473 101.927 12.5369 101.688 12.6648C101.452 12.7926 101.266 12.9801 101.13 13.2273C100.996 13.4716 100.93 13.767 100.93 14.1136ZM109.695 18.1321C109.05 18.1321 108.495 17.9943 108.029 17.7188C107.566 17.4403 107.208 17.0497 106.955 16.5469C106.705 16.0412 106.58 15.4489 106.58 14.7699C106.58 14.0994 106.705 13.5085 106.955 12.9972C107.208 12.4858 107.56 12.0866 108.012 11.7997C108.466 11.5128 108.998 11.3693 109.606 11.3693C109.975 11.3693 110.333 11.4304 110.68 11.5526C111.026 11.6747 111.337 11.8665 111.613 12.1278C111.888 12.3892 112.106 12.7287 112.265 13.1463C112.424 13.5611 112.503 14.0653 112.503 14.6591V15.1108H107.3V14.1562H111.255C111.255 13.821 111.187 13.5241 111.05 13.2656C110.914 13.0043 110.722 12.7983 110.475 12.6477C110.231 12.4972 109.944 12.4219 109.614 12.4219C109.256 12.4219 108.944 12.5099 108.677 12.6861C108.412 12.8594 108.208 13.0866 108.063 13.3679C107.921 13.6463 107.85 13.9489 107.85 14.2756V15.0213C107.85 15.4588 107.927 15.831 108.08 16.1378C108.236 16.4446 108.454 16.679 108.732 16.8409C109.01 17 109.336 17.0795 109.708 17.0795C109.949 17.0795 110.17 17.0455 110.368 16.9773C110.567 16.9062 110.739 16.8011 110.884 16.6619C111.029 16.5227 111.14 16.3509 111.216 16.1463L112.422 16.3636C112.326 16.7187 112.153 17.0298 111.903 17.2969C111.655 17.5611 111.344 17.767 110.969 17.9148C110.597 18.0597 110.172 18.1321 109.695 18.1321ZM118.822 13.0526L117.667 13.2571C117.619 13.1094 117.542 12.9687 117.437 12.8352C117.335 12.7017 117.195 12.5923 117.019 12.5071C116.843 12.4219 116.623 12.3793 116.359 12.3793C115.998 12.3793 115.697 12.4602 115.455 12.6222C115.214 12.7812 115.093 12.9872 115.093 13.2401C115.093 13.4588 115.174 13.6349 115.336 13.7685C115.498 13.902 115.759 14.0114 116.12 14.0966L117.16 14.3352C117.762 14.4744 118.211 14.6889 118.507 14.9787C118.802 15.2685 118.95 15.6449 118.95 16.108C118.95 16.5 118.836 16.8494 118.609 17.1562C118.384 17.4602 118.07 17.6989 117.667 17.8722C117.267 18.0455 116.802 18.1321 116.274 18.1321C115.541 18.1321 114.943 17.9759 114.48 17.6634C114.017 17.348 113.732 16.9006 113.627 16.321L114.859 16.1335C114.936 16.4545 115.093 16.6974 115.332 16.8622C115.57 17.0241 115.882 17.1051 116.265 17.1051C116.683 17.1051 117.017 17.0185 117.267 16.8452C117.517 16.669 117.642 16.4545 117.642 16.2017C117.642 15.9972 117.565 15.8253 117.411 15.6861C117.261 15.5469 117.029 15.4418 116.717 15.3707L115.609 15.1278C114.998 14.9886 114.546 14.767 114.254 14.4631C113.964 14.1591 113.819 13.7741 113.819 13.3082C113.819 12.9219 113.927 12.5838 114.143 12.294C114.359 12.0043 114.657 11.7784 115.038 11.6165C115.419 11.4517 115.855 11.3693 116.346 11.3693C117.053 11.3693 117.61 11.5227 118.017 11.8295C118.423 12.1335 118.691 12.5412 118.822 13.0526ZM123.406 11.4545V12.4773H119.831V11.4545H123.406ZM120.79 9.88636H122.064V16.0781C122.064 16.3253 122.101 16.5114 122.175 16.6364C122.248 16.7585 122.344 16.8423 122.46 16.8878C122.579 16.9304 122.709 16.9517 122.848 16.9517C122.95 16.9517 123.04 16.9446 123.116 16.9304C123.193 16.9162 123.253 16.9048 123.295 16.8963L123.525 17.9489C123.452 17.9773 123.346 18.0057 123.21 18.0341C123.074 18.0653 122.903 18.0824 122.699 18.0852C122.363 18.0909 122.051 18.0312 121.761 17.9062C121.471 17.7812 121.237 17.5881 121.058 17.3267C120.879 17.0653 120.79 16.7372 120.79 16.3423V9.88636Z" fill="black"/>
<path fill-rule="evenodd" clip-rule="evenodd" d="M129 1H4C2.34315 1 1 2.34315 1 4V24C1 25.6569 2.34315 27 4 27H129C130.657 27 132 25.6569 132 24V4C132 2.34315 130.657 1 129 1ZM4 0C1.79086 0 0 1.79086 0 4V24C0 26.2091 1.79086 28 4 28H129C131.209 28 133 26.2091 133 24V4C133 1.79086 131.209 0 129 0H4Z" fill="#E0E0E0"/>
</svg>
