<svg width="120" height="22" viewBox="0 0 120 22" fill="none" xmlns="http://www.w3.org/2000/svg">
<path d="M1 4C1 2.34315 2.34315 1 4 1H116C117.657 1 119 2.34315 119 4V18C119 19.6569 117.657 21 116 21H4C2.34314 21 1 19.6569 1 18V4Z" fill="#FAFAFA"/>
<g clip-path="url(#clip0_106_121)">
<path d="M16.168 5.5H10.168C9.47761 5.5 8.91797 6.05964 8.91797 6.75V12.5833C8.91797 13.2737 9.47761 13.8333 10.168 13.8333H16.168C16.8583 13.8333 17.418 13.2737 17.418 12.5833V6.75C17.418 6.05964 16.8583 5.5 16.168 5.5Z" stroke="black" stroke-width="0.833333"/>
<path d="M18.834 8.16666H12.834C12.1436 8.16666 11.584 8.7263 11.584 9.41666V15.25C11.584 15.9403 12.1436 16.5 12.834 16.5H18.834C19.5243 16.5 20.084 15.9403 20.084 15.25V9.41666C20.084 8.7263 19.5243 8.16666 18.834 8.16666Z" stroke="black" stroke-width="0.833333"/>
</g>
<path d="M33.7407 11.5C33.7407 12.3542 33.5845 13.0885 33.272 13.7031C32.9595 14.3151 32.5311 14.7865 31.9868 15.1172C31.4452 15.4453 30.8293 15.6094 30.1392 15.6094C29.4465 15.6094 28.828 15.4453 28.2837 15.1172C27.742 14.7865 27.3149 14.3138 27.0024 13.6992C26.6899 13.0846 26.5337 12.3516 26.5337 11.5C26.5337 10.6458 26.6899 9.91276 27.0024 9.30078C27.3149 8.6862 27.742 8.21484 28.2837 7.88672C28.828 7.55599 29.4465 7.39062 30.1392 7.39062C30.8293 7.39062 31.4452 7.55599 31.9868 7.88672C32.5311 8.21484 32.9595 8.6862 33.272 9.30078C33.5845 9.91276 33.7407 10.6458 33.7407 11.5ZM32.5454 11.5C32.5454 10.849 32.4399 10.3008 32.229 9.85547C32.0207 9.40755 31.7342 9.06901 31.3696 8.83984C31.0076 8.60807 30.5975 8.49219 30.1392 8.49219C29.6782 8.49219 29.2668 8.60807 28.9048 8.83984C28.5428 9.06901 28.2563 9.40755 28.0454 9.85547C27.8371 10.3008 27.7329 10.849 27.7329 11.5C27.7329 12.151 27.8371 12.7005 28.0454 13.1484C28.2563 13.5937 28.5428 13.9323 28.9048 14.1641C29.2668 14.3932 29.6782 14.5078 30.1392 14.5078C30.5975 14.5078 31.0076 14.3932 31.3696 14.1641C31.7342 13.9323 32.0207 13.5937 32.229 13.1484C32.4399 12.7005 32.5454 12.151 32.5454 11.5ZM35.1519 17.75V9.5H36.2925V10.4727H36.3901C36.4578 10.3477 36.5555 10.2031 36.6831 10.0391C36.8107 9.875 36.9878 9.73177 37.2144 9.60937C37.4409 9.48438 37.7404 9.42188 38.1128 9.42188C38.5972 9.42188 39.0295 9.54427 39.4097 9.78906C39.7899 10.0339 40.0881 10.3867 40.3042 10.8477C40.5229 11.3086 40.6323 11.8633 40.6323 12.5117C40.6323 13.1602 40.5243 13.7161 40.3081 14.1797C40.092 14.6406 39.7951 14.9961 39.4175 15.2461C39.0399 15.4935 38.6089 15.6172 38.1245 15.6172C37.7599 15.6172 37.4618 15.556 37.23 15.4336C37.0008 15.3112 36.8211 15.168 36.6909 15.0039C36.5607 14.8398 36.4604 14.694 36.3901 14.5664H36.3198V17.75H35.1519ZM36.2964 12.5C36.2964 12.9219 36.3576 13.2917 36.48 13.6094C36.6024 13.9271 36.7795 14.1758 37.0112 14.3555C37.243 14.5326 37.5269 14.6211 37.8628 14.6211C38.2118 14.6211 38.5034 14.5286 38.7378 14.3437C38.9722 14.1562 39.1493 13.9023 39.269 13.582C39.3914 13.2617 39.4526 12.901 39.4526 12.5C39.4526 12.1042 39.3927 11.7487 39.2729 11.4336C39.1558 11.1185 38.9787 10.8698 38.7417 10.6875C38.5073 10.5052 38.2144 10.4141 37.8628 10.4141C37.5243 10.4141 37.2378 10.5013 37.0034 10.6758C36.7716 10.8503 36.5959 11.0937 36.4761 11.4062C36.3563 11.7187 36.2964 12.0833 36.2964 12.5ZM44.5269 15.6211C43.9357 15.6211 43.4266 15.4948 42.9995 15.2422C42.575 14.987 42.2469 14.6289 42.0151 14.168C41.786 13.7044 41.6714 13.1615 41.6714 12.5391C41.6714 11.9245 41.786 11.3828 42.0151 10.9141C42.2469 10.4453 42.5698 10.0794 42.9839 9.81641C43.4006 9.55339 43.8875 9.42188 44.4448 9.42188C44.7834 9.42188 45.1115 9.47786 45.4292 9.58984C45.7469 9.70182 46.0321 9.8776 46.2847 10.1172C46.5373 10.3568 46.7365 10.668 46.8823 11.0508C47.0282 11.431 47.1011 11.8932 47.1011 12.4375V12.8516H42.3315V11.9766H45.9565C45.9565 11.6693 45.894 11.3971 45.769 11.1602C45.644 10.9206 45.4683 10.7318 45.2417 10.5937C45.0177 10.4557 44.7547 10.3867 44.4526 10.3867C44.1245 10.3867 43.8381 10.4674 43.5933 10.6289C43.3511 10.7878 43.1636 10.9961 43.0308 11.2539C42.9006 11.5091 42.8354 11.7865 42.8354 12.0859V12.7695C42.8354 13.1706 42.9058 13.5117 43.0464 13.793C43.1896 14.0742 43.3888 14.2891 43.644 14.4375C43.8993 14.5833 44.1974 14.6562 44.5386 14.6562C44.7599 14.6562 44.9618 14.625 45.144 14.5625C45.3263 14.4974 45.4839 14.401 45.6167 14.2734C45.7495 14.1458 45.8511 13.9883 45.9214 13.8008L47.0269 14C46.9383 14.3255 46.7795 14.6107 46.5503 14.8555C46.3237 15.0977 46.0386 15.2865 45.6948 15.4219C45.3537 15.5547 44.9644 15.6211 44.5269 15.6211ZM49.5649 11.9375V15.5H48.397V9.5H49.5181V10.4766H49.5923C49.7303 10.1589 49.9465 9.90365 50.2407 9.71094C50.5376 9.51823 50.9113 9.42188 51.3618 9.42188C51.7707 9.42188 52.1287 9.50781 52.436 9.67969C52.7433 9.84896 52.9816 10.1016 53.1509 10.4375C53.3201 10.7734 53.4048 11.1888 53.4048 11.6836V15.5H52.2368V11.8242C52.2368 11.3893 52.1235 11.0495 51.897 10.8047C51.6704 10.5573 51.3592 10.4336 50.9634 10.4336C50.6925 10.4336 50.4517 10.4922 50.2407 10.6094C50.0324 10.7266 49.867 10.8984 49.7446 11.125C49.6248 11.349 49.5649 11.6198 49.5649 11.9375ZM57.8823 15.5V9.5H59.0503V15.5H57.8823ZM58.4722 8.57422C58.269 8.57422 58.0946 8.50651 57.9487 8.37109C57.8055 8.23307 57.7339 8.06901 57.7339 7.87891C57.7339 7.6862 57.8055 7.52214 57.9487 7.38672C58.0946 7.2487 58.269 7.17969 58.4722 7.17969C58.6753 7.17969 58.8485 7.2487 58.9917 7.38672C59.1375 7.52214 59.2104 7.6862 59.2104 7.87891C59.2104 8.06901 59.1375 8.23307 58.9917 8.37109C58.8485 8.50651 58.6753 8.57422 58.4722 8.57422ZM61.7896 11.9375V15.5H60.6216V9.5H61.7427V10.4766H61.8169C61.9549 10.1589 62.1711 9.90365 62.4653 9.71094C62.7622 9.51823 63.1359 9.42188 63.5864 9.42188C63.9953 9.42188 64.3534 9.50781 64.6606 9.67969C64.9679 9.84896 65.2062 10.1016 65.3755 10.4375C65.5448 10.7734 65.6294 11.1888 65.6294 11.6836V15.5H64.4614V11.8242C64.4614 11.3893 64.3481 11.0495 64.1216 10.8047C63.895 10.5573 63.5838 10.4336 63.188 10.4336C62.9172 10.4336 62.6763 10.4922 62.4653 10.6094C62.257 10.7266 62.0916 10.8984 61.9692 11.125C61.8494 11.349 61.7896 11.6198 61.7896 11.9375Z" fill="#616161"/>
<path d="M77.1499 11.5C77.1499 12.3542 76.9937 13.0885 76.6812 13.7031C76.3687 14.3151 75.9403 14.7865 75.396 15.1172C74.8543 15.4453 74.2384 15.6094 73.5483 15.6094C72.8556 15.6094 72.2371 15.4453 71.6929 15.1172C71.1512 14.7865 70.7241 14.3138 70.4116 13.6992C70.0991 13.0846 69.9429 12.3516 69.9429 11.5C69.9429 10.6458 70.0991 9.91276 70.4116 9.30078C70.7241 8.6862 71.1512 8.21484 71.6929 7.88672C72.2371 7.55599 72.8556 7.39062 73.5483 7.39062C74.2384 7.39062 74.8543 7.55599 75.396 7.88672C75.9403 8.21484 76.3687 8.6862 76.6812 9.30078C76.9937 9.91276 77.1499 10.6458 77.1499 11.5ZM75.9546 11.5C75.9546 10.849 75.8491 10.3008 75.6382 9.85547C75.4299 9.40755 75.1434 9.06901 74.7788 8.83984C74.4168 8.60807 74.0067 8.49219 73.5483 8.49219C73.0874 8.49219 72.6759 8.60807 72.314 8.83984C71.952 9.06901 71.6655 9.40755 71.4546 9.85547C71.2463 10.3008 71.1421 10.849 71.1421 11.5C71.1421 12.151 71.2463 12.7005 71.4546 13.1484C71.6655 13.5937 71.952 13.9323 72.314 14.1641C72.6759 14.3932 73.0874 14.5078 73.5483 14.5078C74.0067 14.5078 74.4168 14.3932 74.7788 14.1641C75.1434 13.9323 75.4299 13.5937 75.6382 13.1484C75.8491 12.7005 75.9546 12.151 75.9546 11.5ZM78.561 15.5V9.5H79.6899V10.4531H79.7524C79.8618 10.1302 80.0545 9.8763 80.3306 9.69141C80.6092 9.50391 80.9243 9.41016 81.2759 9.41016C81.3488 9.41016 81.4347 9.41276 81.5337 9.41797C81.6353 9.42318 81.7147 9.42969 81.772 9.4375V10.5547C81.7251 10.5417 81.6418 10.5273 81.522 10.5117C81.4022 10.4935 81.2824 10.4844 81.1626 10.4844C80.8866 10.4844 80.6405 10.543 80.4243 10.6602C80.2108 10.7747 80.0415 10.9349 79.9165 11.1406C79.7915 11.3437 79.729 11.5755 79.729 11.8359V15.5H78.561ZM85.0952 15.6211C84.5145 15.6211 84.0145 15.4896 83.5952 15.2266C83.1785 14.9609 82.8582 14.5951 82.6343 14.1289C82.4103 13.6628 82.2983 13.1289 82.2983 12.5273C82.2983 11.918 82.4129 11.3802 82.6421 10.9141C82.8713 10.4453 83.1942 10.0794 83.6108 9.81641C84.0275 9.55339 84.5184 9.42188 85.0835 9.42188C85.5392 9.42188 85.9455 9.50651 86.3022 9.67578C86.659 9.84245 86.9468 10.0768 87.1655 10.3789C87.3869 10.681 87.5184 11.0339 87.5601 11.4375H86.4233C86.3608 11.1562 86.2176 10.9141 85.9937 10.7109C85.7723 10.5078 85.4754 10.4062 85.103 10.4062C84.7775 10.4062 84.4924 10.4922 84.2476 10.6641C84.0054 10.8333 83.8166 11.0755 83.6812 11.3906C83.5457 11.7031 83.478 12.0729 83.478 12.5C83.478 12.9375 83.5444 13.3151 83.6772 13.6328C83.8101 13.9505 83.9976 14.1966 84.2397 14.3711C84.4845 14.5456 84.7723 14.6328 85.103 14.6328C85.3244 14.6328 85.5249 14.5924 85.7046 14.5117C85.8869 14.4284 86.0392 14.3099 86.1616 14.1562C86.2866 14.0026 86.3739 13.8177 86.4233 13.6016H87.5601C87.5184 13.9896 87.3921 14.3359 87.1812 14.6406C86.9702 14.9453 86.6877 15.1849 86.3335 15.3594C85.9819 15.5339 85.5692 15.6211 85.0952 15.6211ZM89.9771 11.9375V15.5H88.8091V7.5H89.9614V10.4766H90.0356C90.1763 10.1536 90.3911 9.89714 90.6802 9.70703C90.9692 9.51693 91.3468 9.42188 91.813 9.42188C92.2244 9.42188 92.5838 9.50651 92.8911 9.67578C93.201 9.84505 93.4406 10.0977 93.6099 10.4336C93.7817 10.7669 93.8677 11.1836 93.8677 11.6836V15.5H92.6997V11.8242C92.6997 11.3841 92.5864 11.043 92.3599 10.8008C92.1333 10.556 91.8182 10.4336 91.4146 10.4336C91.1385 10.4336 90.8911 10.4922 90.6724 10.6094C90.4562 10.7266 90.2856 10.8984 90.1606 11.125C90.0382 11.349 89.9771 11.6198 89.9771 11.9375ZM98.0122 15.6211C97.4211 15.6211 96.9119 15.4948 96.4849 15.2422C96.0604 14.987 95.7323 14.6289 95.5005 14.168C95.2713 13.7044 95.1567 13.1615 95.1567 12.5391C95.1567 11.9245 95.2713 11.3828 95.5005 10.9141C95.7323 10.4453 96.0552 10.0794 96.4692 9.81641C96.8859 9.55339 97.3729 9.42188 97.9302 9.42188C98.2687 9.42188 98.5968 9.47786 98.9146 9.58984C99.2323 9.70182 99.5174 9.8776 99.77 10.1172C100.023 10.3568 100.222 10.668 100.368 11.0508C100.514 11.431 100.586 11.8932 100.586 12.4375V12.8516H95.8169V11.9766H99.4419C99.4419 11.6693 99.3794 11.3971 99.2544 11.1602C99.1294 10.9206 98.9536 10.7318 98.7271 10.5937C98.5031 10.4557 98.2401 10.3867 97.938 10.3867C97.6099 10.3867 97.3234 10.4674 97.0786 10.6289C96.8364 10.7878 96.6489 10.9961 96.5161 11.2539C96.3859 11.5091 96.3208 11.7865 96.3208 12.0859V12.7695C96.3208 13.1706 96.3911 13.5117 96.5317 13.793C96.675 14.0742 96.8742 14.2891 97.1294 14.4375C97.3846 14.5833 97.6828 14.6562 98.0239 14.6562C98.2453 14.6562 98.4471 14.625 98.6294 14.5625C98.8117 14.4974 98.9692 14.401 99.1021 14.2734C99.2349 14.1458 99.3364 13.9883 99.4067 13.8008L100.512 14C100.424 14.3255 100.265 14.6107 100.036 14.8555C99.8091 15.0977 99.5239 15.2865 99.1802 15.4219C98.839 15.5547 98.4497 15.6211 98.0122 15.6211ZM106.378 10.9648L105.32 11.1523C105.276 11.0169 105.205 10.888 105.109 10.7656C105.015 10.6432 104.888 10.543 104.726 10.4648C104.565 10.3867 104.363 10.3477 104.121 10.3477C103.79 10.3477 103.514 10.4219 103.292 10.5703C103.071 10.7161 102.96 10.9049 102.96 11.1367C102.96 11.3372 103.035 11.4987 103.183 11.6211C103.332 11.7435 103.571 11.8437 103.902 11.9219L104.855 12.1406C105.407 12.2682 105.819 12.4648 106.089 12.7305C106.36 12.9961 106.496 13.3411 106.496 13.7656C106.496 14.125 106.391 14.4453 106.183 14.7266C105.977 15.0052 105.69 15.224 105.32 15.3828C104.953 15.5417 104.527 15.6211 104.042 15.6211C103.371 15.6211 102.822 15.4779 102.398 15.1914C101.973 14.9023 101.713 14.4922 101.617 13.9609L102.746 13.7891C102.816 14.0833 102.96 14.306 103.179 14.457C103.398 14.6055 103.683 14.6797 104.035 14.6797C104.417 14.6797 104.723 14.6003 104.953 14.4414C105.182 14.2799 105.296 14.0833 105.296 13.8516C105.296 13.6641 105.226 13.5065 105.085 13.3789C104.947 13.2513 104.735 13.1549 104.449 13.0898L103.433 12.8672C102.873 12.7396 102.459 12.5365 102.191 12.2578C101.925 11.9792 101.792 11.6263 101.792 11.1992C101.792 10.8451 101.891 10.5352 102.089 10.2695C102.287 10.0039 102.561 9.79687 102.91 9.64844C103.259 9.4974 103.658 9.42188 104.109 9.42188C104.757 9.42188 105.268 9.5625 105.64 9.84375C106.013 10.1224 106.259 10.4961 106.378 10.9648ZM110.581 9.5V10.4375H107.303V9.5H110.581ZM108.182 8.0625H109.35V13.7383C109.35 13.9648 109.384 14.1354 109.452 14.25C109.519 14.362 109.607 14.4388 109.713 14.4805C109.823 14.5195 109.941 14.5391 110.069 14.5391C110.163 14.5391 110.245 14.5326 110.315 14.5195C110.385 14.5065 110.44 14.4961 110.479 14.4883L110.69 15.4531C110.622 15.4792 110.526 15.5052 110.401 15.5313C110.276 15.5599 110.12 15.5755 109.932 15.5781C109.625 15.5833 109.338 15.5286 109.073 15.4141C108.807 15.2995 108.592 15.1224 108.428 14.8828C108.264 14.6432 108.182 14.3424 108.182 13.9805V8.0625Z" fill="black"/>
<path d="M4 1.25H116V0.75H4V1.25ZM118.75 4V18H119.25V4H118.75ZM116 20.75H4V21.25H116V20.75ZM1.25 18V4H0.75V18H1.25ZM4 20.75C2.48121 20.75 1.25 19.5188 1.25 18H0.75C0.75 19.7949 2.20507 21.25 4 21.25V20.75ZM118.75 18C118.75 19.5188 117.519 20.75 116 20.75V21.25C117.795 21.25 119.25 19.7949 119.25 18H118.75ZM116 1.25C117.519 1.25 118.75 2.48122 118.75 4H119.25C119.25 2.20508 117.795 0.75 116 0.75V1.25ZM4 0.75C2.20507 0.75 0.75 2.20507 0.75 4H1.25C1.25 2.48122 2.48122 1.25 4 1.25V0.75Z" fill="#E0E0E0"/>
<defs>
<clipPath id="clip0_106_121">
<rect width="12" height="12" fill="white" transform="translate(8.5 5)"/>
</clipPath>
</defs>
</svg>
