<svg width="270" height="153" viewBox="0 0 270 153" fill="none" xmlns="http://www.w3.org/2000/svg">
<path d="M15.8707 91.1095C19.2906 64.4341 48.8134 49.3544 74.2527 58.0788C95.7589 65.4543 119.449 70.4969 135.5 64.9999C150.918 59.7198 178.737 47.3023 205.73 34.7195C235.117 21.0202 268.036 46.7072 261.271 78.4174C257.136 97.7994 239.054 110.953 219.361 108.727C205.923 107.209 191.223 105.472 180.5 104C165.79 101.981 110.648 118.431 66.6173 132.713C39.6244 141.469 12.2621 119.257 15.8707 91.1095Z" fill="#1976D2" fill-opacity="0.12"/>
<path d="M8 43C8 40.7909 9.79086 39 12 39H40L56 55V99C56 101.209 54.2091 103 52 103H12C9.79086 103 8 101.209 8 99L8 43Z" fill="#FAFAFA" stroke="#424242" stroke-width="2"/>
<path d="M56 55L40 39V55H56Z" fill="#BDBDBD" stroke="#424242" stroke-width="2" stroke-linejoin="round"/>
<path d="M24.5617 83.1141C24.2871 83.1141 24.0516 83.0183 23.8551 82.8265C23.6609 82.6324 23.5651 82.3968 23.5674 82.1198C23.5651 81.8499 23.6609 81.6191 23.8551 81.4274C24.0516 81.2356 24.2871 81.1397 24.5617 81.1397C24.8222 81.1397 25.0518 81.2356 25.2507 81.4274C25.4519 81.6191 25.5537 81.8499 25.5561 82.1198C25.5537 82.3045 25.5052 82.4726 25.4105 82.6241C25.3181 82.7732 25.1974 82.8928 25.0482 82.9828C24.8991 83.0704 24.7369 83.1141 24.5617 83.1141Z" fill="#424242"/>
<path d="M26.593 83.0005V75.7278H29.7322C30.272 75.7278 30.7443 75.8343 31.1491 76.0474C31.5539 76.2605 31.8688 76.5599 32.0937 76.9458C32.3186 77.3317 32.4311 77.7827 32.4311 78.2988C32.4311 78.8196 32.3151 79.2706 32.0831 79.6518C31.8534 80.0329 31.5303 80.3265 31.1136 80.5325C30.6993 80.7384 30.2152 80.8414 29.6612 80.8414H27.7862V79.3073H29.2634C29.4955 79.3073 29.6931 79.2671 29.8565 79.1866C30.0222 79.1037 30.1489 78.9865 30.2365 78.835C30.3264 78.6835 30.3714 78.5048 30.3714 78.2988C30.3714 78.0905 30.3264 77.9129 30.2365 77.7661C30.1489 77.617 30.0222 77.5034 29.8565 77.4252C29.6931 77.3447 29.4955 77.3045 29.2634 77.3045H28.5674V83.0005H26.593Z" fill="#424242"/>
<path d="M32.8572 75.7278H35.0589L36.4794 78.6823H36.5362L37.9566 75.7278H40.1583L37.4879 80.7136V83.0005H35.5277V80.7136L32.8572 75.7278Z" fill="#424242"/>
<path d="M9 94L13.0894 96.5166C14.6655 97.4865 16.4798 98 18.3304 98H45.3444C47.0846 98 48.7948 97.5458 50.3057 96.6824L55 94V99C55 100.657 53.6569 102 52 102H12C10.3431 102 9 100.657 9 99V94Z" fill="#EEEEEE"/>
<path d="M72 43C72 40.7909 73.7909 39 76 39H104L120 55V99C120 101.209 118.209 103 116 103H76C73.7909 103 72 101.209 72 99V43Z" fill="#FAFAFA" stroke="#424242" stroke-width="2"/>
<path d="M120 55L104 39V55H120Z" fill="#BDBDBD" stroke="#424242" stroke-width="2" stroke-linejoin="round"/>
<path d="M89.8703 83.1141C89.5957 83.1141 89.3602 83.0183 89.1637 82.8265C88.9695 82.6324 88.8737 82.3968 88.876 82.1198C88.8737 81.8499 88.9695 81.6191 89.1637 81.4274C89.3602 81.2356 89.5957 81.1397 89.8703 81.1397C90.1308 81.1397 90.3604 81.2356 90.5593 81.4274C90.7605 81.6191 90.8623 81.8499 90.8647 82.1198C90.8623 82.3045 90.8138 82.4726 90.7191 82.6241C90.6267 82.7732 90.506 82.8928 90.3568 82.9828C90.2077 83.0704 90.0455 83.1141 89.8703 83.1141Z" fill="#424242"/>
<path d="M94.8987 75.7278H96.8448V80.7136C96.8424 81.1871 96.7228 81.6037 96.4861 81.9636C96.2517 82.3211 95.9274 82.6004 95.5131 82.8016C95.1012 83.0005 94.6265 83.0999 94.0891 83.0999C93.6227 83.0999 93.1966 83.0195 92.8107 82.8585C92.4248 82.6951 92.117 82.4394 91.8874 82.0914C91.6577 81.741 91.5441 81.2865 91.5465 80.7278H93.5209C93.528 80.9101 93.5588 81.064 93.6132 81.1894C93.6701 81.3149 93.7482 81.4096 93.8476 81.4735C93.9494 81.5351 94.0725 81.5659 94.2169 81.5659C94.3637 81.5659 94.4868 81.5339 94.5862 81.47C94.688 81.4061 94.765 81.3114 94.8171 81.1859C94.8692 81.058 94.8964 80.9006 94.8987 80.7136V75.7278Z" fill="#424242"/>
<path d="M97.7805 83.0005V75.7278H99.7549V81.4096H102.695V83.0005H97.7805Z" fill="#424242"/>
<path d="M73 94L76.6073 96.2199C78.4986 97.3838 80.6758 98 82.8965 98H108.813C110.902 98 112.954 97.455 114.767 96.4189L119 94V99C119 100.657 117.657 102 116 102H76C74.3431 102 73 100.657 73 99V94Z" fill="#EEEEEE"/>
<path d="M136 43C136 40.7909 137.791 39 140 39H168L184 55V99C184 101.209 182.209 103 180 103H140C137.791 103 136 101.209 136 99V43Z" fill="#FAFAFA" stroke="#424242" stroke-width="2"/>
<path d="M184 55L168 39V55H184Z" fill="#BDBDBD" stroke="#424242" stroke-width="2" stroke-linejoin="round"/>
<path d="M143.821 83.1141C143.546 83.1141 143.31 83.0183 143.114 82.8265C142.92 82.6324 142.824 82.3968 142.826 82.1198C142.824 81.8499 142.92 81.6191 143.114 81.4274C143.31 81.2356 143.546 81.1397 143.821 81.1397C144.081 81.1397 144.311 81.2356 144.509 81.4274C144.711 81.6191 144.812 81.8499 144.815 82.1198C144.812 82.3045 144.764 82.4726 144.669 82.6241C144.577 82.7732 144.456 82.8928 144.307 82.9828C144.158 83.0704 143.996 83.1141 143.821 83.1141Z" fill="#424242"/>
<path d="M147.826 75.7278V83.0005H145.852V75.7278H147.826Z" fill="#424242"/>
<path d="M148.762 83.0005V75.7278H151.901C152.441 75.7278 152.913 75.8343 153.318 76.0474C153.723 76.2605 154.038 76.5599 154.263 76.9458C154.488 77.3317 154.6 77.7827 154.6 78.2988C154.6 78.8196 154.484 79.2706 154.252 79.6518C154.022 80.0329 153.699 80.3265 153.283 80.5325C152.868 80.7384 152.384 80.8414 151.83 80.8414H149.955V79.3073H151.432C151.664 79.3073 151.862 79.2671 152.025 79.1866C152.191 79.1037 152.318 78.9865 152.405 78.835C152.495 78.6835 152.54 78.5048 152.54 78.2988C152.54 78.0905 152.495 77.9129 152.405 77.7661C152.318 77.617 152.191 77.5034 152.025 77.4252C151.862 77.3447 151.664 77.3045 151.432 77.3045H150.736V83.0005H148.762Z" fill="#424242"/>
<path d="M155.026 75.7278H157.228L158.648 78.6823H158.705L160.126 75.7278H162.327L159.657 80.7136V83.0005H157.697V80.7136L155.026 75.7278Z" fill="#424242"/>
<path d="M169.264 75.7278V83.0005H167.616L164.988 79.1795H164.945V83.0005H162.971V75.7278H164.647L167.232 79.5346H167.289V75.7278H169.264Z" fill="#424242"/>
<path d="M170.197 83.0005V75.7278H173.351C173.905 75.7278 174.37 75.8024 174.746 75.9515C175.125 76.1007 175.411 76.3114 175.602 76.5836C175.796 76.8559 175.894 77.1766 175.894 77.546C175.894 77.8135 175.834 78.0573 175.716 78.2775C175.6 78.4977 175.437 78.6823 175.226 78.8315C175.015 78.9783 174.769 79.0801 174.487 79.1369V79.2079C174.8 79.2197 175.084 79.299 175.34 79.4458C175.595 79.5902 175.799 79.7903 175.95 80.046C176.102 80.2993 176.178 80.5976 176.178 80.9409C176.178 81.3386 176.073 81.6925 175.865 82.0026C175.659 82.3128 175.366 82.5566 174.984 82.7342C174.603 82.9117 174.149 83.0005 173.621 83.0005H170.197ZM172.172 81.4238H173.095C173.427 81.4238 173.675 81.3623 173.841 81.2391C174.007 81.1137 174.09 80.929 174.09 80.6852C174.09 80.5147 174.05 80.3703 173.972 80.2519C173.894 80.1336 173.783 80.0436 173.639 79.982C173.496 79.9205 173.325 79.8897 173.124 79.8897H172.172V81.4238ZM172.172 78.6681H172.982C173.154 78.6681 173.307 78.6409 173.44 78.5864C173.572 78.532 173.675 78.4539 173.749 78.3521C173.824 78.2479 173.862 78.1212 173.862 77.9721C173.862 77.7472 173.782 77.5756 173.621 77.4572C173.46 77.3364 173.256 77.2761 173.01 77.2761H172.172V78.6681Z" fill="#424242"/>
<path d="M137 94L140.607 96.2199C142.499 97.3838 144.676 98 146.897 98H172.813C174.902 98 176.954 97.455 178.767 96.4189L183 94V99C183 100.657 181.657 102 180 102H140C138.343 102 137 100.657 137 99V94Z" fill="#EEEEEE"/>
<path d="M209.419 42.9392C209.802 40.7637 211.877 39.311 214.053 39.6946L241.627 44.5567L254.606 63.092L246.965 106.424C246.582 108.599 244.507 110.052 242.331 109.668L202.939 102.722C200.763 102.339 199.311 100.264 199.694 98.0885L209.419 42.9392Z" fill="#FAFAFA" stroke="#424242" stroke-width="2"/>
<path d="M254.606 63.0919L241.627 44.5566L238.849 60.3136L254.606 63.0919Z" fill="#BDBDBD" stroke="#424242" stroke-width="2" stroke-linejoin="round"/>
<path d="M222.472 85.9734C222.202 85.9257 221.986 85.7904 221.826 85.5674C221.669 85.3426 221.615 85.0939 221.665 84.8216C221.71 84.5554 221.845 84.3447 222.069 84.1896C222.296 84.0348 222.544 83.9813 222.815 84.029C223.071 84.0742 223.281 84.2085 223.443 84.4319C223.608 84.6557 223.668 84.9007 223.624 85.1669C223.589 85.3483 223.513 85.5054 223.393 85.6382C223.276 85.769 223.136 85.8658 222.974 85.9285C222.812 85.9889 222.645 86.0038 222.472 85.9734Z" fill="#424242"/>
<path d="M224.492 86.2142L225.755 79.052L228.847 79.5971C229.378 79.6909 229.826 79.8696 230.191 80.1334C230.555 80.3972 230.816 80.7305 230.974 81.1333C231.131 81.536 231.165 81.9916 231.075 82.4998C230.985 83.0127 230.794 83.4251 230.504 83.7368C230.215 84.049 229.85 84.2587 229.408 84.3659C228.969 84.4734 228.476 84.4791 227.931 84.3829L226.084 84.0573L226.35 82.5466L227.805 82.8031C228.034 82.8434 228.233 82.8497 228.404 82.8221C228.578 82.7926 228.719 82.7225 228.827 82.6118C228.938 82.5016 229.011 82.345 229.047 82.1422C229.083 81.937 229.068 81.7625 229.002 81.6186C228.939 81.4729 228.831 81.3553 228.679 81.2659C228.529 81.1746 228.34 81.1088 228.111 81.0685L227.426 80.9476L226.437 86.5571L224.492 86.2142ZM229.268 83.6669L230.479 87.2699L228.367 86.8975L227.198 83.3018L229.268 83.6669Z" fill="#424242"/>
<path d="M201.547 93.3381L204.714 96.1507C206.375 97.6253 208.412 98.6103 210.599 98.9959L236.122 103.496C238.179 103.859 240.294 103.679 242.26 102.973L246.849 101.326L245.98 106.25C245.693 107.882 244.137 108.971 242.505 108.683L203.113 101.738C201.481 101.45 200.391 99.8939 200.679 98.2622L201.547 93.3381Z" fill="#EEEEEE"/>
</svg>
