<svg width="26" height="24" viewBox="0 0 26 24" fill="none" xmlns="http://www.w3.org/2000/svg">
<path d="M5.87056 24C4.70845 23.9987 3.57281 23.6528 2.60718 23.0059C1.64156 22.3591 0.889297 21.4404 0.445481 20.3659C0.00166553 19.2915 -0.11378 18.1096 0.113737 16.9695C0.341254 15.8294 0.901517 14.7824 1.72372 13.9608C2.54591 13.1392 3.59313 12.5799 4.73301 12.3536C5.87288 12.1273 7.05425 12.2441 8.12778 12.6893C9.2013 13.1345 10.1188 13.8881 10.7643 14.8548C11.4098 15.8215 11.7543 16.958 11.7543 18.1206C11.7526 19.6805 11.1319 21.1759 10.0287 22.2783C8.92544 23.3808 7.42988 24 5.87056 24Z" fill="#CA3C32"/>
<path d="M19.9956 24C18.8334 23.9987 17.6978 23.6528 16.7322 23.0059C15.7666 22.3591 15.0143 21.4404 14.5705 20.3659C14.1267 19.2915 14.0112 18.1096 14.2387 16.9695C14.4663 15.8294 15.0265 14.7824 15.8487 13.9608C16.6709 13.1392 17.7181 12.5799 18.858 12.3536C19.9979 12.1273 21.1793 12.2441 22.2528 12.6893C23.3263 13.1345 24.2438 13.8881 24.8893 14.8548C25.5348 15.8215 25.8793 16.958 25.8793 18.1206C25.8776 19.6805 25.2569 21.1759 24.1537 22.2783C23.0504 23.3808 21.5549 24 19.9956 24Z" fill="#9259A3"/>
<path d="M12.9362 11.7589C11.7739 11.7589 10.6376 11.4141 9.67107 10.768C8.70458 10.122 7.95129 9.20373 7.50646 8.1294C7.06163 7.05508 6.94524 5.87292 7.17201 4.73242C7.39878 3.59192 7.95853 2.5443 8.78046 1.72205C9.6024 0.899796 10.6496 0.339834 11.7897 0.112974C12.9297 -0.113885 14.1114 0.00254748 15.1853 0.447548C16.2592 0.892549 17.1771 1.64613 17.8229 2.613C18.4687 3.57987 18.8134 4.7166 18.8134 5.87944C18.8143 6.65178 18.6629 7.41671 18.3678 8.13043C18.0728 8.84415 17.6399 9.49264 17.094 10.0388C16.548 10.5849 15.8998 11.0179 15.1864 11.3131C14.4729 11.6083 13.7083 11.7597 12.9362 11.7589Z" fill="#399746"/>
</svg>
