<svg width="156" height="156" xmlns="http://www.w3.org/2000/svg">

 <title>Asset 2</title>
 <g>
  <title>Layer 1</title>
  <g data-name="Layer 2" id="Layer_2">
   <g data-name="Layer 1" id="Layer_1-2">
    <g id="layer1">
     <g id="g3855">
      <g id="g945">
       <g id="g984">
        <g id="g920">
         <path fill="#1a1a1a" class="cls-1" d="m94.57021,109.60422l-13,0l0,-59.81l13,-3.58l0,63.39z" id="path3804"/>
         <g id="g898">
          <g id="g893">
           <path fill="#4d64ae" class="cls-2" d="m23.60021,64.99422a8.9,8.9 0 1 1 8.9,-8.9a8.91,8.91 0 0 1 -8.9,8.9z" id="path19"/>
          </g>
          <path fill="#1a1a1a" class="cls-1" d="m30.57021,109.49422a26.48,26.48 0 0 1 -1.31,9.17a12.12,12.12 0 0 1 -3.62,5.4a12.33,12.33 0 0 1 -5.64,2.6a36.64,36.64 0 0 1 -7.32,0.67a22.47,22.47 0 0 1 -4.81,-0.47a13,13 0 0 1 -3.54,-1.27a6,6 0 0 1 -2.14,-1.86a3.62,3.62 0 0 1 -0.76,-2.19a4.26,4.26 0 0 1 1.59,-3.38a6.47,6.47 0 0 1 4.33,-1.35a5,5 0 0 1 1.87,0.32a6,6 0 0 1 1.43,0.79a12,12 0 0 1 1.16,1.07c0.31,0.4 0.59,0.77 0.83,1.12a7.58,7.58 0 0 0 1.51,1.55a2.3,2.3 0 0 0 1.15,0.4a1.85,1.85 0 0 0 1,-0.28a2,2 0 0 0 0.71,-1a7.18,7.18 0 0 0 0.4,-1.91a23.12,23.12 0 0 0 0.16,-3.06l0,-46.67l13,-3.58l0,43.93z" id="path3819"/>
         </g>
         <path fill="#1a1a1a" class="cls-1" d="m49.57021,66.60422l0,30.06a6.14,6.14 0 0 0 0.47,2.39a6.45,6.45 0 0 0 1.39,1.85a7,7 0 0 0 2,1.27a6.12,6.12 0 0 0 2.4,0.48a4.2,4.2 0 0 0 1.61,-0.4a8.42,8.42 0 0 0 1.8,-1.12a13.27,13.27 0 0 0 1.81,-1.66a12.92,12.92 0 0 0 1.61,-2.11l0,-30.76l13,0l0,43l-13,0l0,-4a22.47,22.47 0 0 1 -5.43,3.53a13.62,13.62 0 0 1 -5.59,1.28a16.52,16.52 0 0 1 -5.9,-1a15.59,15.59 0 0 1 -4.76,-2.89a13.56,13.56 0 0 1 -3.17,-4.28a12.41,12.41 0 0 1 -1.15,-5.29l0,-30.35l12.91,0z" id="path3802"/>
         <g id="g905">
          <g id="g890">
           <path fill="#ca3c32" class="cls-3" d="m107.22021,64.99422a8.9,8.9 0 1 1 8.91,-8.9a8.91,8.91 0 0 1 -8.91,8.9z" id="path13"/>
           <path fill="#9259a3" class="cls-4" d="m128.61021,64.99422a8.9,8.9 0 1 1 8.91,-8.9a8.91,8.91 0 0 1 -8.91,8.9z" id="path25"/>
           <path fill="#399746" class="cls-5" d="m117.92021,46.46422a8.9,8.9 0 1 1 8.9,-8.9a8.89,8.89 0 0 1 -8.9,8.9z" id="path31"/>
          </g>
          <path fill="#1a1a1a" class="cls-1" d="m101.57021,69.26422l13,-3.58l0,43.92l-13,0l0,-40.34z" id="path3823"/>
         </g>
         <path fill="#1a1a1a" class="cls-1" d="m141.57021,87.43422a37.64,37.64 0 0 0 -3.77,1.87a21.89,21.89 0 0 0 -3.46,2.3a12.77,12.77 0 0 0 -2.55,2.67a5.12,5.12 0 0 0 -1,2.94a8.53,8.53 0 0 0 0.32,2.34a7,7 0 0 0 0.87,1.91a5.15,5.15 0 0 0 1.23,1.27a2.67,2.67 0 0 0 1.51,0.48a6.3,6.3 0 0 0 3.18,-1a41.31,41.31 0 0 0 3.62,-2.47l0.05,-12.31zm13,22.17l-13,0l0,-3.42c-0.71,0.61 -1.42,1.17 -2.11,1.67a14.2,14.2 0 0 1 -2.3,1.35a13.56,13.56 0 0 1 -2.82,0.88a19.75,19.75 0 0 1 -3.78,0.31a16,16 0 0 1 -5.33,-0.83a12.23,12.23 0 0 1 -4,-2.31a10.23,10.23 0 0 1 -2.51,-3.53a11,11 0 0 1 -0.87,-4.37a10.27,10.27 0 0 1 0.91,-4.42a13.11,13.11 0 0 1 2.55,-3.57a19.36,19.36 0 0 1 3.77,-2.86a40.26,40.26 0 0 1 4.65,-2.31c1.67,-0.69 3.4,-1.32 5.17,-1.91l5.25,-1.71l1.43,-0.31l0,-4.26a11.91,11.91 0 0 0 -0.44,-3.45a5.82,5.82 0 0 0 -1.15,-2.31a4,4 0 0 0 -1.79,-1.31a6.6,6.6 0 0 0 -2.34,-0.4a7.38,7.38 0 0 0 -2.59,0.4a4.37,4.37 0 0 0 -1.67,1.11a3.94,3.94 0 0 0 -0.91,1.59a6.52,6.52 0 0 0 -0.28,2a9.51,9.51 0 0 1 -0.28,2.35a4.85,4.85 0 0 1 -0.91,2a4.47,4.47 0 0 1 -1.79,1.28a6.84,6.84 0 0 1 -2.9,0.52a7.51,7.51 0 0 1 -2.51,-0.4a6.16,6.16 0 0 1 -1.91,-1.15a6,6 0 0 1 -1.27,-1.75a5.59,5.59 0 0 1 -0.44,-2.18a6.42,6.42 0 0 1 1.51,-4.1a13.16,13.16 0 0 1 4.06,-3.3a23.45,23.45 0 0 1 5.92,-2.14a31.07,31.07 0 0 1 7.12,-0.8a32.21,32.21 0 0 1 7.87,0.84a16.37,16.37 0 0 1 5.49,2.34a9.55,9.55 0 0 1 3.18,3.66a10.91,10.91 0 0 1 1,4.81l0.02,31.99z" id="path3808"/>
        </g>
       </g>
      </g>
     </g>
    </g>
   </g>
  </g>
 </g>
</svg>