<svg width="64" height="64" xmlns="http://www.w3.org/2000/svg" fill="none">
 <g>
  <path stroke="null" id="svg_1" fill="black" d="m11.84591,5.95057l28.72817,0c3.32703,0 6.02411,2.69709 6.02411,6.02412l0,27.97267c0,3.32703 -2.69708,6.02411 -6.02411,6.02411l-28.72816,0c-3.32703,0 -6.02412,-2.69708 -6.02412,-6.02411l0,-27.97267c0,-3.32703 2.69708,-6.02412 6.02411,-6.02412zm0,3.01206c-1.66351,0 -3.01205,1.34855 -3.01205,3.01206l0,27.97267c0,1.66347 1.34855,3.01201 3.01206,3.01201l28.72816,0c1.66347,0 3.01201,-1.34854 3.01201,-3.01201l0,-27.97267c0,-1.66352 -1.34854,-3.01206 -3.01201,-3.01206l-28.72817,0z" clip-rule="evenodd" fill-rule="evenodd"/>
  <path stroke="null" id="svg_2" fill="black" d="m23.93371,18.03832l28.72817,0c3.32703,0 6.02411,2.69708 6.02411,6.02411l0,27.97265c0,3.32703 -2.69708,6.02419 -6.02411,6.02419l-28.72817,0c-3.32703,0 -6.02411,-2.69708 -6.02411,-6.02419l0,-27.97265c0,-3.32703 2.69708,-6.02411 6.02411,-6.02411zm0,3.01209c-1.66347,0 -3.01209,1.34854 -3.01209,3.01201l0,27.97265c0,1.66355 1.34862,3.01209 3.01209,3.01209l28.72817,0c1.66347,0 3.01201,-1.34854 3.01201,-3.01209l0,-27.97265c0,-1.66347 -1.34854,-3.01201 -3.01201,-3.01201l-28.72817,0z" clip-rule="evenodd" fill-rule="evenodd"/>
 </g>
</svg>