<svg xmlns="http://www.w3.org/2000/svg" fill="none" viewBox="0 0 112 24">
  <path fill="#212121" d="M33 12.4c0-2 .8-3.9 2.2-5.3a7 7 0 0 1 5.3-2.2c2 0 3.8.7 5.3 2.2a7.3 7.3 0 0 1 2.1 5.3c0 2.1-.7 3.9-2.1 5.4a7.1 7.1 0 0 1-5.3 2.2 7 7 0 0 1-5.3-2.2 7.3 7.3 0 0 1-2.1-5.4Zm3.6-4c-1 1.1-1.5 2.5-1.5 4 0 1.6.5 3 1.5 4 1 1.1 2.4 1.6 3.9 1.6s2.8-.5 3.9-1.6c1-1 1.5-2.4 1.5-4a5.5 5.5 0 0 0-5.4-5.6c-1.5 0-2.8.6-3.9 1.6ZM53 16.1v3.6h-1.9v-10h2V12c.5-1.6 1.4-2.4 2.7-2.4a3 3 0 0 1 1.8.4l-.3 1.8c-.5-.3-1-.4-1.5-.4-.9 0-1.6.5-2 1.3-.5.9-.7 2-.7 3.4ZM60.8 18.5a5 5 0 0 1-1.5-3.8c0-1.5.5-2.7 1.5-3.7s2.3-1.4 3.7-1.4a5 5 0 0 1 3.9 1.6l-1.5 1.2c-.6-.6-1.4-1-2.4-1-.9 0-1.7.4-2.3 1a3 3 0 0 0-1 2.3c0 1 .3 1.8 1 2.4.6.7 1.4 1 2.3 1 1 0 1.8-.3 2.4-1l1.5 1.2a5 5 0 0 1-3.9 1.7c-1.4 0-2.7-.5-3.7-1.5ZM73.4 14.4v5.3h-2V4.4h2v6.9c.3-.6.7-1 1.4-1.3.6-.3 1.3-.4 1.9-.4 1.2 0 2.2.4 3 1.1.7.8 1 1.9 1 3.3v5.7h-2v-5.6c0-.8-.1-1.4-.6-1.9-.4-.5-1-.7-1.7-.7-.8 0-1.5.2-2 .7-.7.5-1 1.2-1 2.2ZM85.8 14h6.1a3 3 0 0 0-3-2.7c-.8 0-1.5.3-2.1.7a3 3 0 0 0-1 2Zm8 .7v.8h-8a3 3 0 0 0 1 2c.6.5 1.3.7 2.2.7.6 0 1.1-.1 1.7-.4.5-.3.9-.6 1.1-1.1a51.6 51.6 0 0 1 1.7.6c-.4.9-1 1.5-1.9 2-.8.4-1.7.7-2.7.7a5 5 0 0 1-3.6-1.5c-1-1-1.5-2.2-1.5-3.8a5 5 0 0 1 1.5-3.7 5 5 0 0 1 3.6-1.4c1.4 0 2.6.5 3.5 1.4a5 5 0 0 1 1.4 3.7ZM99.2 15.4c-1-.3-1.6-.7-2.1-1.2s-.6-1.2-.6-2c.1-.8.5-1.4 1.2-1.9.6-.5 1.4-.7 2.3-.7 1 0 1.7.2 2.3.7.7.4 1 1.1 1.1 2h-1.8c0-.3-.2-.5-.5-.7-.3-.2-.7-.3-1-.3-.4 0-.8 0-1 .2a1 1 0 0 0-.6.7v.7c.2.4.6.6 1.2.8l1.5.4c1.7.4 2.6 1.4 2.6 2.9 0 .9-.4 1.6-1.1 2.1-.8.6-1.7.9-2.8.9a4 4 0 0 1-2.5-1 3 3 0 0 1-1.2-2.2H98c0 .5.3.9.8 1 .4.4 1 .5 1.6.4.4 0 .8-.1 1-.4.3-.2.5-.5.5-.9a1 1 0 0 0-.3-.8l-1-.4-1.4-.3ZM109.6 9.8h2.1v1.6h-2v8.3h-2v-8.3h-1.8V9.8h1.8V6h2v3.8Z"/>
  <path fill="#212121" fill-rule="evenodd" d="M3.6 0h12.2c1.9 0 3.4 1.5 3.4 3.4v11.8c0 1.9-1.5 3.4-3.4 3.4H3.6a3.4 3.4 0 0 1-3.3-3.4V3.4C.3 1.5 1.8 0 3.6 0Zm0 1.7c-.9 0-1.7.7-1.7 1.7v11.8c0 1 .8 1.7 1.7 1.7h12.2c1 0 1.7-.8 1.7-1.7V3.4c0-1-.8-1.7-1.7-1.7H3.6Z" clip-rule="evenodd"/>
  <path fill="#212121" fill-rule="evenodd" d="M9 5.4h12.2c1.9 0 3.4 1.5 3.4 3.4v11.8c0 1.9-1.5 3.4-3.4 3.4H9a3.4 3.4 0 0 1-3.3-3.4V8.8c0-1.9 1.5-3.4 3.3-3.4Zm0 1.7c-.9 0-1.6.8-1.6 1.7v11.8c0 1 .7 1.7 1.6 1.7h12.2c1 0 1.7-.7 1.7-1.7V8.8c0-1-.8-1.7-1.7-1.7H9Z" clip-rule="evenodd"/>
</svg>
