<svg width="242" height="168" viewBox="0 0 242 168" fill="none" xmlns="http://www.w3.org/2000/svg">
<path d="M9.6821 96.1034L120.444 31.5652C121.688 30.84 123.227 30.84 124.471 31.5652L235.233 96.1034C237.889 97.6511 237.879 101.492 235.215 103.026L124.453 166.796C123.218 167.507 121.697 167.507 120.462 166.796L9.70007 103.026C7.03582 101.492 7.02586 97.6511 9.6821 96.1034Z" fill="#1976D2" fill-opacity="0.12"/>
<path d="M72.0088 29.2104L118.574 2.16671C119.816 1.44532 121.349 1.44532 122.591 2.16671L169.156 29.2104C171.819 30.7569 171.809 34.606 169.138 36.1387L122.573 62.8604C121.34 63.568 119.824 63.568 118.591 62.8604L72.0268 36.1387C69.356 34.606 69.346 30.7569 72.0088 29.2104Z" fill="#FAFAFA" stroke="#424242" stroke-width="2"/>
<path fill-rule="evenodd" clip-rule="evenodd" d="M125.591 23.0668C126.089 23.3042 126.301 23.901 126.064 24.3996L118.563 40.1503C118.326 40.649 117.729 40.8607 117.231 40.6233C116.732 40.3858 116.52 39.7891 116.758 39.2905L124.258 23.5397C124.495 23.0411 125.092 22.8294 125.591 23.0668Z" fill="#BDBDBD"/>
<path fill-rule="evenodd" clip-rule="evenodd" d="M112.102 25.0292C112.492 25.4197 112.492 26.0529 112.102 26.4434L106.808 31.7366L112.102 37.0297C112.492 37.4203 112.492 38.0534 112.102 38.444C111.711 38.8345 111.078 38.8345 110.687 38.444L103.98 31.7366L110.687 25.0292C111.078 24.6387 111.711 24.6387 112.102 25.0292Z" fill="#424242"/>
<path fill-rule="evenodd" clip-rule="evenodd" d="M130.188 38.4442C129.798 38.0537 129.798 37.4206 130.188 37.03L135.481 31.7369L130.188 26.4437C129.798 26.0532 129.798 25.42 130.188 25.0295C130.579 24.6389 131.212 24.6389 131.602 25.0295L138.31 31.7369L131.602 38.4442C131.212 38.8348 130.579 38.8348 130.188 38.4442Z" fill="#424242"/>
<path d="M137.226 68.1767L183.791 41.133C185.033 40.4116 186.567 40.4116 187.809 41.133L234.373 68.1767C237.036 69.7232 237.026 73.5723 234.356 75.105L187.791 101.827C186.558 102.534 185.042 102.534 183.809 101.827L137.244 75.105C134.574 73.5723 134.564 69.7232 137.226 68.1767Z" fill="#FAFAFA" stroke="#424242" stroke-width="2"/>
<path d="M189.676 77.88H186.679V64.0884L189.676 63.2629V77.88Z" fill="#424242"/>
<path d="M173.317 67.592C172.911 67.592 172.514 67.4716 172.177 67.2461C171.84 67.0206 171.577 66.7001 171.422 66.3251C171.266 65.9501 171.226 65.5374 171.305 65.1393C171.384 64.7412 171.579 64.3756 171.866 64.0885C172.153 63.8015 172.519 63.6061 172.917 63.5269C173.315 63.4477 173.727 63.4883 174.102 63.6437C174.477 63.799 174.797 64.062 175.023 64.3995C175.248 64.737 175.368 65.1338 175.368 65.5397C175.368 66.0838 175.151 66.6055 174.767 66.9902C174.382 67.3749 173.861 67.5913 173.317 67.592V67.592Z" fill="#BDBDBD"/>
<path d="M174.923 77.8539C174.948 78.571 174.846 79.2868 174.621 79.9684C174.462 80.4517 174.173 80.8823 173.787 81.2136C173.412 81.5211 172.964 81.7275 172.487 81.8131C171.931 81.9211 171.366 81.9728 170.8 81.9676C170.427 81.9715 170.056 81.9351 169.691 81.8592C169.406 81.8017 169.131 81.703 168.875 81.5664C168.679 81.4649 168.51 81.3178 168.382 81.1375C168.27 80.9929 168.208 80.8155 168.207 80.6325C168.205 80.4833 168.236 80.3355 168.3 80.2005C168.363 80.0654 168.457 79.9466 168.573 79.8531C168.857 79.6323 169.212 79.5217 169.571 79.5418C169.718 79.5387 169.865 79.5637 170.002 79.6156C170.12 79.661 170.231 79.7223 170.332 79.7978C170.426 79.874 170.516 79.9565 170.599 80.0445C170.671 80.1367 170.735 80.222 170.791 80.3027C170.889 80.4379 171.006 80.5583 171.139 80.6602C171.217 80.7142 171.309 80.746 171.404 80.7524C171.485 80.7533 171.565 80.7309 171.634 80.6878C171.712 80.63 171.769 80.5494 171.798 80.4572C171.848 80.3153 171.879 80.1671 171.89 80.0168C171.918 79.7827 171.93 79.547 171.927 79.3112V68.5496L174.923 67.7241V77.8539Z" fill="#424242"/>
<path d="M179.303 67.9646V74.8961C179.302 75.0852 179.339 75.2726 179.411 75.4472C179.492 75.6076 179.6 75.7521 179.732 75.8738C179.868 75.9969 180.024 76.096 180.193 76.1667C180.368 76.2404 180.556 76.2781 180.746 76.2773C180.874 76.2716 181.001 76.2402 181.117 76.1851C181.266 76.1169 181.405 76.0301 181.532 75.9269C181.682 75.8124 181.822 75.6843 181.949 75.5441C182.089 75.3951 182.214 75.232 182.32 75.0575V67.9646H185.317V77.8799H182.32V76.9576C181.944 77.288 181.523 77.5621 181.069 77.7716C180.665 77.9603 180.226 78.0609 179.78 78.0667C179.317 78.0733 178.856 77.9952 178.42 77.8361C178.017 77.6817 177.646 77.4559 177.323 77.1697C177.017 76.8923 176.768 76.5569 176.592 76.1828C176.415 75.8007 176.325 75.3842 176.327 74.963V67.9646H179.303Z" fill="#424242"/>
<path d="M192.591 67.592C192.186 67.5915 191.789 67.4708 191.452 67.245C191.115 67.0192 190.852 66.6985 190.697 66.3235C190.543 65.9484 190.502 65.5359 190.582 65.1379C190.661 64.74 190.857 64.3745 191.144 64.0877C191.431 63.801 191.796 63.6057 192.194 63.5267C192.592 63.4477 193.004 63.4885 193.379 63.6439C193.754 63.7993 194.074 64.0623 194.299 64.3998C194.525 64.7372 194.645 65.1339 194.645 65.5397C194.644 66.0842 194.428 66.6062 194.043 66.991C193.657 67.3758 193.135 67.592 192.591 67.592Z" fill="#BDBDBD"/>
<path d="M197.522 67.592C197.116 67.5915 196.72 67.4708 196.383 67.245C196.046 67.0192 195.783 66.6985 195.628 66.3235C195.473 65.9484 195.433 65.5359 195.512 65.1379C195.592 64.74 195.787 64.3745 196.074 64.0877C196.361 63.801 196.727 63.6057 197.125 63.5267C197.523 63.4477 197.935 63.4885 198.31 63.6439C198.684 63.7993 199.005 64.0623 199.23 64.3998C199.455 64.7372 199.576 65.1339 199.576 65.5397C199.575 66.0842 199.358 66.6062 198.973 66.991C198.588 67.3758 198.066 67.592 197.522 67.592V67.592Z" fill="#BDBDBD"/>
<path d="M195.058 63.3203C194.652 63.3203 194.255 63.1999 193.918 62.9744C193.581 62.7489 193.318 62.4284 193.163 62.0534C193.007 61.6784 192.967 61.2657 193.046 60.8677C193.125 60.4696 193.32 60.1039 193.607 59.8169C193.894 59.5299 194.26 59.3344 194.658 59.2552C195.056 59.176 195.468 59.2167 195.843 59.372C196.218 59.5273 196.538 59.7904 196.764 60.1279C196.989 60.4653 197.109 60.8621 197.109 61.268C197.11 61.5376 197.057 61.8046 196.954 62.0537C196.851 62.3029 196.7 62.5292 196.509 62.7199C196.319 62.9105 196.092 63.0616 195.843 63.1647C195.594 63.2677 195.327 63.3206 195.058 63.3203Z" fill="#BDBDBD"/>
<path d="M191.289 68.5765L194.286 67.751V77.8785H191.289V68.5765Z" fill="#424242"/>
<path d="M200.509 72.769C200.212 72.8965 199.922 73.0404 199.64 73.2002C199.358 73.3513 199.091 73.5289 198.843 73.7306C198.618 73.9063 198.42 74.1137 198.255 74.3463C198.11 74.5429 198.029 74.7798 198.024 75.0242C198.024 75.2066 198.049 75.3882 198.098 75.5638C198.142 75.7198 198.21 75.8683 198.299 76.0042C198.376 76.1175 198.471 76.2165 198.582 76.2971C198.684 76.3683 198.806 76.4069 198.93 76.4078C199.191 76.3981 199.444 76.3185 199.663 76.1772C199.951 76.0022 200.23 75.8121 200.498 75.6076L200.509 72.769ZM203.506 77.8812H200.509V77.0926C200.345 77.2333 200.182 77.3624 200.023 77.4777C199.856 77.5979 199.679 77.7021 199.493 77.789C199.284 77.8801 199.066 77.9481 198.843 77.9919C198.555 78.0436 198.263 78.0676 197.971 78.0634C197.554 78.0696 197.139 78.0049 196.743 77.872C196.404 77.7546 196.091 77.5739 195.821 77.3393C195.572 77.1124 195.375 76.8349 195.242 76.5254C195.107 76.2067 195.039 75.8637 195.042 75.5177C195.035 75.1666 195.107 74.8184 195.251 74.4985C195.4 74.193 195.598 73.9147 195.839 73.6753C196.101 73.4207 196.393 73.1992 196.708 73.0158C197.054 72.8153 197.412 72.6374 197.78 72.4831C198.165 72.324 198.564 72.1787 198.972 72.0427L200.182 71.6484L200.511 71.5769V70.5946C200.517 70.3259 200.483 70.0578 200.41 69.799C200.363 69.6039 200.272 69.4219 200.145 69.2664C200.039 69.1288 199.896 69.0241 199.732 68.9643C199.56 68.9012 199.377 68.87 199.193 68.8721C198.99 68.8669 198.788 68.8982 198.596 68.9643C198.45 69.0186 198.318 69.1063 198.211 69.2203C198.113 69.3243 198.041 69.4499 198.001 69.5869C197.956 69.7363 197.934 69.8919 197.937 70.0481C197.938 70.2307 197.916 70.4127 197.872 70.59C197.838 70.7577 197.767 70.9155 197.662 71.0512C197.552 71.1824 197.41 71.2839 197.25 71.3463C197.038 71.4344 196.81 71.4753 196.581 71.4662C196.385 71.4686 196.189 71.4374 196.003 71.374C195.841 71.3131 195.692 71.2232 195.563 71.1088C195.441 70.9931 195.342 70.8564 195.27 70.7053C195.203 70.5462 195.168 70.3752 195.168 70.2026C195.17 69.8564 195.294 69.5219 195.516 69.2572C195.774 68.9434 196.093 68.6847 196.452 68.4962C196.883 68.2711 197.342 68.1051 197.817 68.0028C198.355 67.8782 198.906 67.8163 199.458 67.8183C200.068 67.808 200.678 67.8731 201.272 68.012C201.723 68.1128 202.152 68.2956 202.538 68.5516C202.85 68.7651 203.103 69.0558 203.271 69.3955C203.431 69.7429 203.509 70.1222 203.501 70.5047L203.506 77.8812Z" fill="#424242"/>
<path d="M72.0088 107.142L118.574 80.0988C119.816 79.3774 121.349 79.3774 122.591 80.0988L169.156 107.142C171.819 108.689 171.809 112.538 169.138 114.071L122.573 140.793C121.34 141.5 119.824 141.5 118.591 140.793L72.0268 114.071C69.356 112.538 69.346 108.689 72.0088 107.142Z" fill="#FAFAFA" stroke="#424242" stroke-width="2"/>
<g clip-path="url(#clip0_1289_59640)">
<path d="M120.399 97.3081C114.068 97.3081 114.463 100.068 114.463 100.068L114.47 102.927H120.512V103.786H112.07C112.07 103.786 108.019 103.324 108.019 109.745C108.019 116.167 111.555 115.939 111.555 115.939H113.666V112.959C113.666 112.959 113.552 109.405 117.145 109.405C120.738 109.405 123.137 109.405 123.137 109.405C123.137 109.405 126.504 109.459 126.504 106.134C126.504 102.809 126.504 100.636 126.504 100.636C126.504 100.636 127.015 97.3081 120.399 97.3081ZM117.067 99.2307C117.669 99.2307 118.154 99.7191 118.154 100.323C118.154 100.928 117.669 101.416 117.067 101.416C116.466 101.416 115.981 100.928 115.981 100.323C115.981 99.7191 116.466 99.2307 117.067 99.2307Z" fill="#424242"/>
<path d="M120.579 122.247C126.91 122.247 126.514 119.487 126.514 119.487L126.507 116.628H120.466V115.769H128.907C128.907 115.769 132.958 116.231 132.958 109.81C132.958 103.388 129.422 103.616 129.422 103.616H127.312V106.596C127.312 106.596 127.425 110.15 123.832 110.15C120.239 110.15 117.84 110.15 117.84 110.15C117.84 110.15 114.474 110.095 114.474 113.421C114.474 116.746 114.474 118.919 114.474 118.919C114.474 118.919 113.962 122.247 120.579 122.247ZM123.91 120.324C123.309 120.324 122.823 119.836 122.823 119.231C122.823 118.627 123.309 118.139 123.91 118.139C124.511 118.139 124.997 118.627 124.997 119.231C124.997 119.836 124.511 120.324 123.91 120.324Z" fill="#BDBDBD"/>
</g>
<path d="M6.79151 68.1767L53.3562 41.133C54.5983 40.4116 56.1319 40.4116 57.374 41.133L103.939 68.1767C106.601 69.7232 106.591 73.5723 103.921 75.105L57.356 101.827C56.123 102.534 54.6072 102.534 53.3742 101.827L6.80948 75.105C4.1387 73.5723 4.12872 69.7232 6.79151 68.1767Z" fill="#FAFAFA" stroke="#424242" stroke-width="2"/>
<g clip-path="url(#clip1_1289_59640)">
<path fill-rule="evenodd" clip-rule="evenodd" d="M52.5911 78.8069C43.9271 78.8069 36.9036 74.254 36.9036 68.6377C36.9036 63.0213 43.9271 58.4684 52.5911 58.4684C61.2551 58.4684 68.2786 63.0213 68.2786 68.6377C68.2786 74.254 61.2551 78.8069 52.5911 78.8069ZM54.9923 62.4442C48.407 62.4442 43.0685 65.5568 43.0685 69.3963C43.0685 73.2359 48.407 76.3485 54.9923 76.3485C61.5777 76.3485 66.4375 74.2205 66.4375 69.3963C66.4375 64.5737 61.5777 62.4442 54.9923 62.4442Z" fill="#BDBDBD"/>
<path fill-rule="evenodd" clip-rule="evenodd" d="M60.7949 74.2191C60.7949 74.2191 61.7444 74.4964 62.296 74.7666C62.4874 74.8603 62.8186 75.0474 63.0575 75.293C63.2915 75.5336 63.4055 75.7773 63.4055 75.7773L67.1474 81.8839L61.0995 81.8865L58.2713 76.746C58.2713 76.746 57.6922 75.7829 57.3359 75.5036C57.0386 75.2707 56.9118 75.1877 56.6179 75.1877C56.4133 75.1877 55.181 75.1877 55.181 75.1877L55.1821 81.8828L49.8303 81.885V64.7829H60.5774C60.5774 64.7829 65.4723 64.8683 65.4723 69.376C65.4723 73.8836 60.7949 74.2191 60.7949 74.2191ZM58.4671 68.4926L55.2272 68.4906L55.2256 71.3985L58.4671 71.3975C58.4671 71.3975 59.9682 71.393 59.9682 69.9183C59.9682 68.4139 58.4671 68.4926 58.4671 68.4926Z" fill="#424242"/>
</g>
<defs>
<clipPath id="clip0_1289_59640">
<rect width="24.9387" height="24.9387" fill="white" transform="translate(108.019 97.3081)"/>
</clipPath>
<clipPath id="clip1_1289_59640">
<rect width="31.5015" height="23.6261" fill="white" transform="translate(36.8643 58.342)"/>
</clipPath>
</defs>
</svg>
