<svg width="249" height="166" viewBox="0 0 249 166" fill="none" xmlns="http://www.w3.org/2000/svg">
<rect x="12" y="12" width="224" height="122" rx="8" fill="#BDBDBD"/>
<rect width="224" height="122" rx="8" fill="#1976D2" fill-opacity="0.12"/>
<rect x="12" y="12" width="224" height="122" rx="8" fill="#E0E0E0"/>
<rect x="12" y="12" width="224" height="122" rx="8" fill="#BDBDBD" stroke="#424242" stroke-width="2" stroke-linecap="round"/>
<circle cx="25" cy="28" r="1" fill="#BDBDBD"/>
<circle cx="43" cy="28" r="1" fill="#BDBDBD"/>
<circle cx="61" cy="28" r="1" fill="#BDBDBD"/>
<circle cx="79" cy="28" r="1" fill="#BDBDBD"/>
<circle cx="97" cy="28" r="1" fill="#BDBDBD"/>
<circle cx="115" cy="28" r="1" fill="#BDBDBD"/>
<circle cx="133" cy="28" r="1" fill="#BDBDBD"/>
<circle cx="151" cy="28" r="1" fill="#BDBDBD"/>
<circle cx="169" cy="28" r="1" fill="#BDBDBD"/>
<circle cx="187" cy="28" r="1" fill="#BDBDBD"/>
<circle cx="205" cy="28" r="1" fill="#BDBDBD"/>
<circle cx="223" cy="28" r="1" fill="#BDBDBD"/>
<circle cx="25" cy="46" r="1" fill="#BDBDBD"/>
<circle cx="43" cy="46" r="1" fill="#BDBDBD"/>
<circle cx="61" cy="46" r="1" fill="#BDBDBD"/>
<circle cx="79" cy="46" r="1" fill="#BDBDBD"/>
<circle cx="97" cy="46" r="1" fill="#BDBDBD"/>
<circle cx="115" cy="46" r="1" fill="#BDBDBD"/>
<circle cx="133" cy="46" r="1" fill="#BDBDBD"/>
<circle cx="151" cy="46" r="1" fill="#BDBDBD"/>
<circle cx="169" cy="46" r="1" fill="#BDBDBD"/>
<circle cx="187" cy="46" r="1" fill="#BDBDBD"/>
<circle cx="205" cy="46" r="1" fill="#BDBDBD"/>
<circle cx="223" cy="46" r="1" fill="#BDBDBD"/>
<circle cx="25" cy="64" r="1" fill="#BDBDBD"/>
<circle cx="43" cy="64" r="1" fill="#BDBDBD"/>
<circle cx="61" cy="64" r="1" fill="#BDBDBD"/>
<circle cx="79" cy="64" r="1" fill="#BDBDBD"/>
<circle cx="97" cy="64" r="1" fill="#BDBDBD"/>
<circle cx="115" cy="64" r="1" fill="#BDBDBD"/>
<circle cx="133" cy="64" r="1" fill="#BDBDBD"/>
<circle cx="151" cy="64" r="1" fill="#BDBDBD"/>
<circle cx="169" cy="64" r="1" fill="#BDBDBD"/>
<circle cx="187" cy="64" r="1" fill="#BDBDBD"/>
<circle cx="205" cy="64" r="1" fill="#BDBDBD"/>
<circle cx="223" cy="64" r="1" fill="#BDBDBD"/>
<circle cx="25" cy="82" r="1" fill="#BDBDBD"/>
<circle cx="43" cy="82" r="1" fill="#BDBDBD"/>
<circle cx="61" cy="82" r="1" fill="#BDBDBD"/>
<circle cx="79" cy="82" r="1" fill="#BDBDBD"/>
<circle cx="97" cy="82" r="1" fill="#BDBDBD"/>
<circle cx="115" cy="82" r="1" fill="#BDBDBD"/>
<circle cx="133" cy="82" r="1" fill="#BDBDBD"/>
<circle cx="151" cy="82" r="1" fill="#BDBDBD"/>
<circle cx="169" cy="82" r="1" fill="#BDBDBD"/>
<circle cx="187" cy="82" r="1" fill="#BDBDBD"/>
<circle cx="205" cy="82" r="1" fill="#BDBDBD"/>
<circle cx="223" cy="82" r="1" fill="#BDBDBD"/>
<circle cx="25" cy="100" r="1" fill="#BDBDBD"/>
<circle cx="43" cy="100" r="1" fill="#BDBDBD"/>
<circle cx="61" cy="100" r="1" fill="#BDBDBD"/>
<circle cx="79" cy="100" r="1" fill="#BDBDBD"/>
<circle cx="97" cy="100" r="1" fill="#BDBDBD"/>
<circle cx="115" cy="100" r="1" fill="#BDBDBD"/>
<circle cx="133" cy="100" r="1" fill="#BDBDBD"/>
<circle cx="151" cy="100" r="1" fill="#BDBDBD"/>
<circle cx="169" cy="100" r="1" fill="#BDBDBD"/>
<circle cx="187" cy="100" r="1" fill="#BDBDBD"/>
<circle cx="205" cy="100" r="1" fill="#BDBDBD"/>
<circle cx="223" cy="100" r="1" fill="#BDBDBD"/>
<circle cx="25" cy="118" r="1" fill="#BDBDBD"/>
<circle cx="43" cy="118" r="1" fill="#BDBDBD"/>
<circle cx="61" cy="118" r="1" fill="#BDBDBD"/>
<circle cx="79" cy="118" r="1" fill="#BDBDBD"/>
<circle cx="97" cy="118" r="1" fill="#BDBDBD"/>
<circle cx="115" cy="118" r="1" fill="#BDBDBD"/>
<circle cx="133" cy="118" r="1" fill="#BDBDBD"/>
<circle cx="151" cy="118" r="1" fill="#BDBDBD"/>
<circle cx="169" cy="118" r="1" fill="#BDBDBD"/>
<circle cx="187" cy="118" r="1" fill="#BDBDBD"/>
<circle cx="205" cy="118" r="1" fill="#BDBDBD"/>
<circle cx="223" cy="118" r="1" fill="#BDBDBD"/>
<path d="M82 67.9999V67.9999C84.8226 67.9999 87.5351 69.0952 89.5663 71.0551L94.7776 76.0835C96.7165 77.9544 99.3057 78.9999 102 78.9999V78.9999" stroke="#424242" stroke-width="2" stroke-linecap="round"/>
<path d="M167 72.9999V72.9999C163.962 72.9999 160.966 73.7088 158.25 75.0701L154.352 77.0237C151.76 78.3232 148.9 78.9999 146 78.9999V78.9999" stroke="#424242" stroke-width="2" stroke-linecap="round"/>
<rect x="40" y="51.9999" width="40" height="32" rx="4" fill="#BDBDBD" stroke="#424242" stroke-width="2" stroke-linecap="round"/>
<circle cx="40" cy="67.9999" r="2" fill="#BDBDBD" stroke="#424242" stroke-width="2"/>
<circle cx="80" cy="67.9999" r="2" fill="#BDBDBD" stroke="#424242" stroke-width="2"/>
<rect x="48" y="57.9999" width="24" height="4" rx="2" fill="#BDBDBD"/>
<rect x="48" y="64.9999" width="24" height="4" rx="2" fill="#BDBDBD"/>
<rect x="104" y="62.9999" width="40" height="32" rx="4" fill="#BDBDBD" stroke="#424242" stroke-width="2" stroke-linecap="round"/>
<circle cx="104" cy="78.9999" r="2" fill="#BDBDBD" stroke="#424242" stroke-width="2"/>
<circle cx="144" cy="78.9999" r="2" fill="#BDBDBD" stroke="#424242" stroke-width="2"/>
<rect x="112" y="68.9999" width="24" height="4" rx="2" fill="#BDBDBD"/>
<rect x="112" y="75.9999" width="24" height="4" rx="2" fill="#BDBDBD"/>
<rect x="168" y="56.9999" width="40" height="32" rx="4" fill="#BDBDBD" stroke="#424242" stroke-width="2" stroke-linecap="round"/>
<circle cx="168" cy="72.9999" r="2" fill="#BDBDBD" stroke="#424242" stroke-width="2"/>
<circle cx="208" cy="72.9999" r="2" fill="#BDBDBD" stroke="#424242" stroke-width="2"/>
<rect x="176" y="62.9999" width="24" height="4" rx="2" fill="#BDBDBD"/>
<rect x="176" y="69.9999" width="24" height="4" rx="2" fill="#BDBDBD"/>
<rect x="24" y="24" width="224" height="122" rx="8" fill="#FAFAFA" stroke="#424242" stroke-width="2" stroke-linecap="round"/>
<circle cx="37" cy="40" r="1" fill="#E0E0E0"/>
<circle cx="55" cy="40" r="1" fill="#E0E0E0"/>
<circle cx="73" cy="40" r="1" fill="#E0E0E0"/>
<circle cx="91" cy="40" r="1" fill="#E0E0E0"/>
<circle cx="109" cy="40" r="1" fill="#E0E0E0"/>
<circle cx="127" cy="40" r="1" fill="#E0E0E0"/>
<circle cx="145" cy="40" r="1" fill="#E0E0E0"/>
<circle cx="163" cy="40" r="1" fill="#E0E0E0"/>
<circle cx="181" cy="40" r="1" fill="#E0E0E0"/>
<circle cx="199" cy="40" r="1" fill="#E0E0E0"/>
<circle cx="217" cy="40" r="1" fill="#E0E0E0"/>
<circle cx="235" cy="40" r="1" fill="#E0E0E0"/>
<circle cx="37" cy="58" r="1" fill="#E0E0E0"/>
<circle cx="55" cy="58" r="1" fill="#E0E0E0"/>
<circle cx="73" cy="58" r="1" fill="#E0E0E0"/>
<circle cx="91" cy="58" r="1" fill="#E0E0E0"/>
<circle cx="109" cy="58" r="1" fill="#E0E0E0"/>
<circle cx="127" cy="58" r="1" fill="#E0E0E0"/>
<circle cx="145" cy="58" r="1" fill="#E0E0E0"/>
<circle cx="163" cy="58" r="1" fill="#E0E0E0"/>
<circle cx="181" cy="58" r="1" fill="#E0E0E0"/>
<circle cx="199" cy="58" r="1" fill="#E0E0E0"/>
<circle cx="217" cy="58" r="1" fill="#E0E0E0"/>
<circle cx="235" cy="58" r="1" fill="#E0E0E0"/>
<circle cx="37" cy="76" r="1" fill="#E0E0E0"/>
<circle cx="55" cy="76" r="1" fill="#E0E0E0"/>
<circle cx="73" cy="76" r="1" fill="#E0E0E0"/>
<circle cx="91" cy="76" r="1" fill="#E0E0E0"/>
<circle cx="109" cy="76" r="1" fill="#E0E0E0"/>
<circle cx="127" cy="76" r="1" fill="#E0E0E0"/>
<circle cx="145" cy="76" r="1" fill="#E0E0E0"/>
<circle cx="163" cy="76" r="1" fill="#E0E0E0"/>
<circle cx="181" cy="76" r="1" fill="#E0E0E0"/>
<circle cx="199" cy="76" r="1" fill="#E0E0E0"/>
<circle cx="217" cy="76" r="1" fill="#E0E0E0"/>
<circle cx="235" cy="76" r="1" fill="#E0E0E0"/>
<circle cx="37" cy="94" r="1" fill="#E0E0E0"/>
<circle cx="55" cy="94" r="1" fill="#E0E0E0"/>
<circle cx="73" cy="94" r="1" fill="#E0E0E0"/>
<circle cx="91" cy="94" r="1" fill="#E0E0E0"/>
<circle cx="109" cy="94" r="1" fill="#E0E0E0"/>
<circle cx="127" cy="94" r="1" fill="#E0E0E0"/>
<circle cx="145" cy="94" r="1" fill="#E0E0E0"/>
<circle cx="163" cy="94" r="1" fill="#E0E0E0"/>
<circle cx="181" cy="94" r="1" fill="#E0E0E0"/>
<circle cx="199" cy="94" r="1" fill="#E0E0E0"/>
<circle cx="217" cy="94" r="1" fill="#E0E0E0"/>
<circle cx="235" cy="94" r="1" fill="#E0E0E0"/>
<circle cx="37" cy="112" r="1" fill="#E0E0E0"/>
<circle cx="55" cy="112" r="1" fill="#E0E0E0"/>
<circle cx="73" cy="112" r="1" fill="#E0E0E0"/>
<circle cx="91" cy="112" r="1" fill="#E0E0E0"/>
<circle cx="109" cy="112" r="1" fill="#E0E0E0"/>
<circle cx="127" cy="112" r="1" fill="#E0E0E0"/>
<circle cx="145" cy="112" r="1" fill="#E0E0E0"/>
<circle cx="163" cy="112" r="1" fill="#E0E0E0"/>
<circle cx="181" cy="112" r="1" fill="#E0E0E0"/>
<circle cx="199" cy="112" r="1" fill="#E0E0E0"/>
<circle cx="217" cy="112" r="1" fill="#E0E0E0"/>
<circle cx="235" cy="112" r="1" fill="#E0E0E0"/>
<circle cx="37" cy="130" r="1" fill="#E0E0E0"/>
<circle cx="55" cy="130" r="1" fill="#E0E0E0"/>
<circle cx="73" cy="130" r="1" fill="#E0E0E0"/>
<circle cx="91" cy="130" r="1" fill="#E0E0E0"/>
<circle cx="109" cy="130" r="1" fill="#E0E0E0"/>
<circle cx="127" cy="130" r="1" fill="#E0E0E0"/>
<circle cx="145" cy="130" r="1" fill="#E0E0E0"/>
<circle cx="163" cy="130" r="1" fill="#E0E0E0"/>
<circle cx="181" cy="130" r="1" fill="#E0E0E0"/>
<circle cx="199" cy="130" r="1" fill="#E0E0E0"/>
<circle cx="217" cy="130" r="1" fill="#E0E0E0"/>
<circle cx="235" cy="130" r="1" fill="#E0E0E0"/>
<path d="M94 79.9999V79.9999C96.8226 79.9999 99.5351 81.0952 101.566 83.0551L106.778 88.0835C108.716 89.9544 111.306 90.9999 114 90.9999V90.9999" stroke="#424242" stroke-width="2" stroke-linecap="round"/>
<path d="M179 84.9999V84.9999C175.962 84.9999 172.966 85.7088 170.25 87.0701L166.352 89.0237C163.76 90.3232 160.9 90.9999 158 90.9999V90.9999" stroke="#424242" stroke-width="2" stroke-linecap="round"/>
<rect x="52" y="63.9999" width="40" height="32" rx="4" fill="#FAFAFA" stroke="#424242" stroke-width="2" stroke-linecap="round"/>
<circle cx="52" cy="79.9999" r="2" fill="#BDBDBD" stroke="#424242" stroke-width="2"/>
<circle cx="92" cy="79.9999" r="2" fill="#BDBDBD" stroke="#424242" stroke-width="2"/>
<rect x="60" y="69.9999" width="24" height="3" rx="1.5" fill="#EEEEEE"/>
<rect x="60" y="76.9999" width="24" height="3" rx="1.5" fill="#EEEEEE"/>
<rect x="116" y="74.9999" width="40" height="32" rx="4" fill="#FAFAFA" stroke="#424242" stroke-width="2" stroke-linecap="round"/>
<circle cx="116" cy="90.9999" r="2" fill="#BDBDBD" stroke="#424242" stroke-width="2"/>
<circle cx="156" cy="90.9999" r="2" fill="#BDBDBD" stroke="#424242" stroke-width="2"/>
<rect x="124" y="80.9999" width="24" height="3" rx="1.5" fill="#EEEEEE"/>
<rect x="124" y="87.9999" width="24" height="3" rx="1.5" fill="#EEEEEE"/>
<rect x="180" y="68.9999" width="40" height="32" rx="4" fill="#FAFAFA" stroke="#424242" stroke-width="2" stroke-linecap="round"/>
<circle cx="180" cy="84.9999" r="2" fill="#BDBDBD" stroke="#424242" stroke-width="2"/>
<circle cx="220" cy="84.9999" r="2" fill="#BDBDBD" stroke="#424242" stroke-width="2"/>
<rect x="188" y="74.9999" width="24" height="3" rx="1.5" fill="#EEEEEE"/>
<rect x="188" y="81.9999" width="24" height="3" rx="1.5" fill="#EEEEEE"/>
<circle cx="57" cy="145" r="20" fill="#FAFAFA" stroke="#424242" stroke-width="2"/>
<line x1="57" y1="132" x2="57" y2="145" stroke="#424242" stroke-width="2" stroke-linecap="round"/>
<line x1="57" y1="159" x2="57" y2="161" stroke="#E0E0E0" stroke-width="2" stroke-linecap="round"/>
<line x1="43" y1="146" x2="41" y2="146" stroke="#E0E0E0" stroke-width="2" stroke-linecap="round"/>
<line x1="73" y1="146" x2="71" y2="146" stroke="#E0E0E0" stroke-width="2" stroke-linecap="round"/>
<line x1="62.6356" y1="148.372" x2="57.3721" y2="145.364" stroke="#424242" stroke-width="2" stroke-linecap="round"/>
</svg>
