<svg width="276" height="182" viewBox="0 0 276 182" fill="none" xmlns="http://www.w3.org/2000/svg">
<path d="M184.499 144.829C180.294 146.65 91.3465 133.365 87.1526 131.508C69.4877 123.686 52.0874 116.793 35.9807 110.866C0.919315 97.9643 -11.7275 45.1697 14.482 15.3319C39.482 -13.1291 81.7939 1.36946 105.202 31.583C119.451 49.9737 137.71 60.461 159.437 46.0251C195.281 22.2099 228.577 50.1619 248.155 73.827C260.746 89.0459 264.069 112.781 251.973 128.527C245.175 137.377 236.112 143.545 225.155 138.205C216.148 133.816 200.735 137.797 184.499 144.829Z" fill="#1976D2" fill-opacity="0.12"/>
<path fill-rule="evenodd" clip-rule="evenodd" d="M39.8076 61.4051C35.3893 61.4051 31.8076 64.9868 31.8076 69.4051V77.4051V169.405C31.8076 173.823 35.3893 177.405 39.8076 177.405H175.808C184.644 177.405 191.808 170.242 191.808 161.405V85.4051C191.808 80.9868 188.226 77.4051 183.808 77.4051H103.808L87.8076 61.4051H39.8076Z" fill="#BDBDBD"/>
<path d="M103.808 77.4051L103.101 78.1122L103.393 78.4051H103.808V77.4051ZM87.8076 61.4051L88.5147 60.698L88.2218 60.4051H87.8076V61.4051ZM32.8076 69.4051C32.8076 65.5391 35.9416 62.4051 39.8076 62.4051V60.4051C34.8371 60.4051 30.8076 64.4345 30.8076 69.4051H32.8076ZM32.8076 77.4051V69.4051H30.8076V77.4051H32.8076ZM32.8076 169.405V77.4051H30.8076V169.405H32.8076ZM39.8076 176.405C35.9416 176.405 32.8076 173.271 32.8076 169.405H30.8076C30.8076 174.376 34.8371 178.405 39.8076 178.405V176.405ZM175.808 176.405H39.8076V178.405H175.808V176.405ZM190.808 161.405C190.808 169.689 184.092 176.405 175.808 176.405V178.405C185.196 178.405 192.808 170.794 192.808 161.405H190.808ZM190.808 85.4051V161.405H192.808V85.4051H190.808ZM183.808 78.4051C187.674 78.4051 190.808 81.5391 190.808 85.4051H192.808C192.808 80.4345 188.778 76.4051 183.808 76.4051V78.4051ZM103.808 78.4051H183.808V76.4051H103.808V78.4051ZM87.1005 62.1122L103.101 78.1122L104.515 76.698L88.5147 60.698L87.1005 62.1122ZM39.8076 62.4051H87.8076V60.4051H39.8076V62.4051Z" fill="#424242"/>
<path d="M198.102 67.9979V67.9979C199.731 68.8403 200.796 70.479 200.905 72.3103L201.449 81.5163C201.553 83.2643 202.569 84.8285 204.125 85.6327V85.6327" stroke="#424242" stroke-width="2" stroke-linecap="round"/>
<path d="M244.597 96.3326V96.3326C242.924 95.4679 240.962 95.3561 239.202 96.025L233.868 98.0525C232.188 98.6911 230.316 98.5843 228.719 97.759V97.759" stroke="#424242" stroke-width="2" stroke-linecap="round"/>
<rect x="179.652" y="46.2415" width="26.0372" height="20.8298" rx="2" transform="rotate(27.3377 179.652 46.2415)" fill="#FAFAFA" stroke="#424242" stroke-width="2" stroke-linecap="round"/>
<rect x="182.089" y="52.8753" width="15.1884" height="1.73581" rx="0.867907" transform="rotate(27.3377 182.089 52.8753)" fill="#EEEEEE"/>
<rect x="180.494" y="55.9589" width="15.1884" height="1.73581" rx="0.867907" transform="rotate(27.3377 180.494 55.9589)" fill="#EEEEEE"/>
<rect x="209.836" y="76.6808" width="25.9666" height="21.0979" rx="2" transform="rotate(27.3377 209.836 76.6808)" fill="#FAFAFA" stroke="#424242" stroke-width="2" stroke-linecap="round"/>
<rect x="211.874" y="84.0853" width="15.1884" height="1.73581" rx="0.867907" transform="rotate(27.3377 211.874 84.0853)" fill="#EEEEEE"/>
<rect x="210.28" y="87.1691" width="15.1884" height="1.73581" rx="0.867907" transform="rotate(27.3377 210.28 87.1691)" fill="#EEEEEE"/>
<rect x="250.618" y="87.3483" width="25.9666" height="21.0979" rx="2" transform="rotate(27.3377 250.618 87.3483)" fill="#FAFAFA" stroke="#424242" stroke-width="2" stroke-linecap="round"/>
<rect x="252.904" y="94" width="15.1884" height="1.73581" rx="0.867907" transform="rotate(27.3377 252.904 94)" fill="#EEEEEE"/>
<rect x="251.31" y="97.0844" width="15.1884" height="1.73581" rx="0.867907" transform="rotate(27.3377 251.31 97.0844)" fill="#EEEEEE"/>
<path d="M101.83 85.8306L134.29 67.0303C134.911 66.6704 135.678 66.6713 136.298 67.0327L168.713 85.9098C170.044 86.6846 170.036 88.6092 168.7 89.3739L136.241 107.95C135.624 108.303 134.866 108.302 134.25 107.948L101.835 89.2948C100.501 88.5269 100.498 86.6023 101.83 85.8306Z" fill="#FAFAFA" stroke="#424242" stroke-width="2"/>
<path d="M138.334 81.7905L133.313 92.3026" stroke="#BDBDBD" stroke-width="2" stroke-linecap="round"/>
<path d="M129.139 82.9593L125.128 86.9614L129.13 90.973" stroke="#424242" stroke-width="2" stroke-linecap="round"/>
<path d="M142.152 90.9885L146.164 86.9864L142.162 82.9748" stroke="#424242" stroke-width="2" stroke-linecap="round"/>
<path d="M65.5523 33.324C65.9948 31.1596 68.1081 29.7638 70.2725 30.2063L87.2545 33.6781L95.5686 46.2651L89.9602 73.6977C89.5178 75.862 87.4045 77.2579 85.2401 76.8154L61.7265 72.0083C59.5621 71.5658 58.1662 69.4525 58.6087 67.2882L65.5523 33.324Z" fill="#FAFAFA" stroke="#424242" stroke-width="2"/>
<path d="M95.5688 46.2651L87.2548 33.6781L85.1183 44.1286L95.5688 46.2651Z" fill="#EEEEEE" stroke="#424242" stroke-width="2" stroke-linejoin="round"/>
<rect x="0.807617" y="84.4939" width="54.206" height="33.4075" rx="4" transform="rotate(-11.6032 0.807617 84.4939)" fill="#FAFAFA" stroke="#424242" stroke-width="2" stroke-linecap="round"/>
<rect x="13.7981" y="93.716" width="54.206" height="33.4075" rx="4" transform="rotate(-11.6032 13.7981 93.716)" fill="#FAFAFA" stroke="#424242" stroke-width="2" stroke-linecap="round"/>
<circle cx="43.573" cy="104.218" r="9.58525" transform="rotate(-11.6032 43.573 104.218)" fill="#FAFAFA" stroke="#BDBDBD" stroke-width="2"/>
<path d="M47.2471 103.463L42.5345 108.484L40.9375 100.706L47.2471 103.463Z" fill="#424242"/>
<path d="M59.8449 101.557C61.0267 98.4551 64.0013 96.4051 67.3208 96.4051H210.199C215.803 96.4051 219.67 102.017 217.675 107.253L191.77 175.253C190.589 178.355 187.614 180.405 184.294 180.405H41.4161C35.8127 180.405 31.9454 174.793 33.9402 169.557L59.8449 101.557Z" fill="#FAFAFA" stroke="#424242" stroke-width="2" stroke-linecap="round"/>
</svg>
