<svg width="220" height="169" viewBox="0 0 220 169" fill="none" xmlns="http://www.w3.org/2000/svg">
<path d="M5.49938 156.557C-5.85382 140.264 5.17184 116.814 23.959 110.382C41.5472 104.361 59.2789 94.3737 66.4726 77.9093C70.2812 69.1925 75.3119 57.1017 80.7874 43.6853C100.049 -3.51064 161.863 -15.2355 196.445 22.2153L202.909 29.2158C218.921 46.5555 225.141 71.3503 211.894 90.883C198.355 110.844 174.928 135.039 135.882 149.925C132.593 151.179 129.479 152.531 126.531 153.97C101.654 166.107 21.3246 179.266 5.49938 156.557Z" fill="#1976D2" fill-opacity="0.12"/>
<rect x="25.4863" y="29" width="160" height="124" rx="16" fill="#FAFAFA" stroke="#424242" stroke-width="2" stroke-linecap="round"/>
<circle cx="185.486" cy="90.9751" r="8" fill="#BDBDBD" stroke="#424242" stroke-width="2"/>
<circle cx="25.4863" cy="90.9751" r="8" fill="#BDBDBD" stroke="#424242" stroke-width="2"/>
<rect x="50.9053" y="56" width="111" height="8" rx="4" fill="#EEEEEE"/>
<rect x="50.9053" y="76" width="111" height="8" rx="4" fill="#EEEEEE"/>
<path d="M59.5551 108.666L103.993 83.1211C105.227 82.4115 106.746 82.4115 107.98 83.1211L152.418 108.666C155.101 110.209 155.091 114.083 152.4 115.612L107.962 140.853C106.737 141.549 105.236 141.549 104.011 140.853L59.573 115.612C56.8818 114.083 56.8718 110.209 59.5551 108.666Z" fill="#EEEEEE" stroke="#424242" stroke-width="2"/>
<path d="M80.4863 53.9753C80.4863 51.7662 82.2772 49.9753 84.4863 49.9753H113.82L130.486 66.642V112.642C130.486 114.851 128.695 116.642 126.486 116.642H84.4863C82.2772 116.642 80.4863 114.851 80.4863 112.642V53.9753Z" fill="#FAFAFA" stroke="#424242" stroke-width="2"/>
<path d="M81.4863 107.975L85.9182 110.589C87.4572 111.497 89.2113 111.975 90.998 111.975H119.623C121.302 111.975 122.954 111.553 124.426 110.746L129.486 107.975V112.975C129.486 114.632 128.143 115.975 126.486 115.975H84.4863C82.8295 115.975 81.4863 114.632 81.4863 112.975V107.975Z" fill="#EEEEEE"/>
<path d="M130.486 66.642L113.82 49.9753V66.642H130.486Z" fill="#EEEEEE" stroke="#424242" stroke-width="2" stroke-linejoin="round"/>
<path d="M109.205 81.6734L102.26 96.2567" stroke="#BDBDBD" stroke-width="2" stroke-linecap="round"/>
<path d="M96.4584 83.3088L90.9028 88.8643L96.4584 94.4199" stroke="#424242" stroke-width="2" stroke-linecap="round"/>
<path d="M114.514 94.4199L120.069 88.8643L114.514 83.3088" stroke="#424242" stroke-width="2" stroke-linecap="round"/>
</svg>
