<svg width="31" height="25" viewBox="0 0 31 25" fill="none" xmlns="http://www.w3.org/2000/svg">
<path fill-rule="evenodd" clip-rule="evenodd" d="M15.4378 21.6341C6.91176 21.6341 0 17.0091 0 11.3039C0 5.59868 6.91176 0.973694 15.4378 0.973694C23.9639 0.973694 30.8756 5.59868 30.8756 11.3039C30.8756 17.0091 23.9639 21.6341 15.4378 21.6341ZM17.8008 5.01245C11.3203 5.01245 6.06675 8.17429 6.06675 12.0746C6.06675 15.9749 11.3203 19.1368 17.8008 19.1368C24.2813 19.1368 29.0638 16.9751 29.0638 12.0746C29.0638 7.17566 24.2813 5.01245 17.8008 5.01245Z" fill="#CBCED0"/>
<path fill-rule="evenodd" clip-rule="evenodd" d="M23.5108 16.9737C23.5108 16.9737 24.4451 17.2554 24.988 17.5298C25.1763 17.625 25.5022 17.8151 25.7373 18.0646C25.9676 18.3089 26.0798 18.5566 26.0798 18.5566L29.7621 24.7598L23.8105 24.7624L21.0273 19.5405C21.0273 19.5405 20.4574 18.5622 20.1068 18.2785C19.8142 18.0419 19.6895 17.9576 19.4003 17.9576C19.1989 17.9576 17.9862 17.9576 17.9862 17.9576L17.9873 24.7586L12.7207 24.7609V7.38812H23.2967C23.2967 7.38812 28.1137 7.47492 28.1137 12.0539C28.1137 16.6328 23.5108 16.9737 23.5108 16.9737ZM21.22 11.1565L18.0317 11.1545L18.0301 14.1085L21.22 14.1074C21.22 14.1074 22.6972 14.1029 22.6972 12.6048C22.6972 11.0766 21.22 11.1565 21.22 11.1565Z" fill="#4D64AE"/>
</svg>
